<svg xmlns="http://www.w3.org/2000/svg" viewBox="0 0 150.58 152.93"><g id="Layer_2" data-name="Layer 2"><g id="OBJECTS"><path d="M150.58,152.93H0c.13-.85.3-1.8.49-2.82s.43-2.16.69-3.33c.39-1.78.84-3.66,1.34-5.56.3-1.11.61-2.23.94-3.33.57-1.94,1.2-3.82,1.86-5.55.45-1.2.92-2.33,1.41-3.34a17.55,17.55,0,0,1,2.14-3.54,12.22,12.22,0,0,1,2.3-2,40.77,40.77,0,0,1,5.88-3.33,145.13,145.13,0,0,1,13.73-5.56c2.62-.93,4.95-1.69,6.59-2.22l1.47-.46,1.07-.33,1.27-.32,4-1,13.45-3.39H85.12l14.48,3.44,4.1,1,2.92.69.87.21.63.14c1.35.32,4.74,1.14,8.85,2.29a123.8,123.8,0,0,1,16.17,5.56,26.06,26.06,0,0,1,5.78,3.33,7.94,7.94,0,0,1,1,1,25.19,25.19,0,0,1,2.78,4.56c.51,1,1,2.15,1.52,3.34.75,1.74,1.48,3.63,2.17,5.55.4,1.11.78,2.22,1.15,3.33.62,1.91,1.18,3.79,1.66,5.56.32,1.17.59,2.29.83,3.33S150.45,152.08,150.58,152.93Z" fill="#ffac32"/><path d="M51,152.93h-1.6l-12-40.59,1.47-.46Z" fill="#f38400"/><path d="M108.12,112.27l-12,40.66h-1.6l12.13-41,.87.21Z" fill="#f38400"/><polygon points="99.6 110.26 98.55 114.83 96.9 121.96 95.37 128.57 93.72 135.7 92.19 142.31 90.54 149.44 89.73 152.93 56.69 152.93 55.76 149.44 53.84 142.31 52.06 135.7 50.15 128.57 48.38 121.96 46.46 114.83 45.22 110.21 58.67 106.82 85.12 106.82 99.6 110.26" fill="#f5efff"/><polygon points="92.19 142.31 90.54 149.44 55.76 149.44 53.84 142.31 92.19 142.31" fill="#e1daf2"/><polygon points="95.37 128.57 93.72 135.7 52.06 135.7 50.15 128.57 95.37 128.57" fill="#e1daf2"/><polygon points="98.55 114.83 96.9 121.96 48.38 121.96 46.46 114.83 98.55 114.83" fill="#e1daf2"/><path d="M41.62,58.94l59.47-.75C103,45.51,102.34,29,102.34,29s8.07-4.11,3.86-11.16c-3.22-5.39-10.74-2-10.74-2s4.62-4.1,0-8.72S83.88,8.63,83.88,8.63s1.83-6-5.52-7.69-9.77,7-9.77,7S66.74-.94,59.92.08,53.46,8,53.46,8s-3.28-4.28-8.57-1-3.08,10.9-3.08,10.9-6-2.18-7.22,4c-1.42,7.29,6,10.08,6,10.08C39,43.4,40.8,54.76,41.62,58.94Z" fill="#19274b"/><path d="M87.49,111s-3.85,7.2-14.61,7.2a17.24,17.24,0,0,1-14.78-7.56l.64-5.18.1-.87,1-8.16,25.73.72.43,3.1.14,1Z" fill="#ff8881"/><path d="M86,100.23c-5.83,4.94-15.26,6.82-27.26,5.21l.1-.87,1-8.16,25.73.72Z" fill="#19274b"/><path d="M50.18,75.17c-5.75,8-18.14,2.61-17.3-8C33.65,57.44,44.45,59,44.45,59Z" fill="#f55b5d"/><path d="M44.26,78.93l-.48,0a2.36,2.36,0,0,1-2.13.61c-2.19-.58-1.76-4.09-1.75-4.13a.6.6,0,0,0-1.18-.16c0,.18-.58,4.58,2.62,5.44a3.35,3.35,0,0,0,2-.12A3.6,3.6,0,0,0,45,79.42a3.38,3.38,0,0,0,.41-.74A7.11,7.11,0,0,1,44.26,78.93Z" fill="#19274b"/><path d="M44.88,75.38a.77.77,0,0,1-.74-.59c-1.12-4.57-5.88-8.85-5.92-8.89a.76.76,0,0,1-.07-1.08.77.77,0,0,1,1.09-.07c.21.19,5.15,4.63,6.39,9.68a.77.77,0,0,1-.56.93Z" fill="#d1373f"/><path d="M42.9,71a.67.67,0,0,1-.24,0,8.49,8.49,0,0,0-4.13-.27.77.77,0,1,1-.34-1.5,10.06,10.06,0,0,1,5,.31.77.77,0,0,1,.48,1A.75.75,0,0,1,42.9,71Z" fill="#d1373f"/><path d="M92.79,75.17c5.75,8,18.14,2.61,17.3-8C109.32,57.44,98.52,59,98.52,59Z" fill="#f55b5d"/><path d="M98.2,78.94c.16,0,.32,0,.49.06a2.35,2.35,0,0,0,2.12.59c2.19-.58,1.75-4.09,1.75-4.13a.59.59,0,1,1,1.17-.16c0,.18.58,4.58-2.62,5.44a3.31,3.31,0,0,1-2-.12,3.63,3.63,0,0,1-1.65-1.2,3.29,3.29,0,0,1-.41-.7Z" fill="#19274b"/><path d="M98.09,75.38l-.19,0a.77.77,0,0,1-.56-.93c1.24-5.05,6.18-9.49,6.39-9.68a.77.77,0,0,1,1.09.07.76.76,0,0,1-.07,1.08s-4.8,4.32-5.92,8.89A.77.77,0,0,1,98.09,75.38Z" fill="#d1373f"/><path d="M100.07,71a.75.75,0,0,1-.73-.52.77.77,0,0,1,.48-1,10.06,10.06,0,0,1,5-.31.77.77,0,1,1-.34,1.5,8.64,8.64,0,0,0-4.13.27A.67.67,0,0,1,100.07,71Z" fill="#d1373f"/><path d="M101.08,59.18C100.22,97.27,82,102.26,72.4,102.11c-9.34-.14-19.17-5-25.77-20.4a64.54,64.54,0,0,1-4.82-20.8,65.27,65.27,0,0,1,.35-13.68c2.81-34.4,56.18-35.6,58.56-1.52C101.06,50.6,101.17,55.09,101.08,59.18Z" fill="#ff8881"/><path d="M45.74,56.72,46.06,46c.19-.31.37-.63.55-1,.08-.14.16-.29.23-.44a.75.75,0,0,0,.07-.12c.15-.3.29-.59.43-.9s.19-.42.28-.64.09-.19.13-.29l.3-.73.33-.85c.29-.78.56-1.55.8-2.3,0-.15.1-.3.14-.44s.12-.39.18-.58l.15-.48c.17-.59.33-1.15.46-1.65.42-1.54.64-2.56.64-2.56,18.37,4.32,42.83.51,42.83.51a55.49,55.49,0,0,0,4.17,14.36v8a3.5,3.5,0,0,0,.12.86h3.24c0-3.42-.12-7.08-.39-11C98.65,16,57.92,13.11,45.57,35.56a28.73,28.73,0,0,0-3.41,11.67,57.88,57.88,0,0,0-.54,8.44c0,.34,0,.69,0,1Z" fill="#19274b"/><path d="M45.74,56.72,46.06,46c.19-.31.37-.63.55-1,.08-.14.16-.29.23-.44a.75.75,0,0,0,.07-.12c.14-.29.29-.59.43-.9s.19-.42.28-.64.09-.19.13-.29l.3-.73.33-.85c.29-.78.56-1.55.8-2.3,0-.15.1-.3.14-.44s.12-.39.18-.58l.15-.48c.17-.59.33-1.15.46-1.65H40.19a87.41,87.41,0,0,0,1.43,23.38Z" fill="#f55b5d"/><path d="M97.75,55.86a3.5,3.5,0,0,0,.12.86l3.22,1.47a157.37,157.37,0,0,0,1.49-22.63h-8.7a58,58,0,0,0,3.87,12.31Z" fill="#f55b5d"/><g opacity="0.5"><ellipse cx="53.46" cy="75.09" rx="7.4" ry="3.41" fill="#f55b5d"/></g><g opacity="0.5"><ellipse cx="90.35" cy="75.09" rx="7.4" ry="3.41" fill="#f55b5d"/></g><path d="M73.27,77.23h0l-4.68-.38a.64.64,0,0,1,.11-1.27l3.91.31L71.34,64a.64.64,0,1,1,1.27-.13l1.3,12.66a.61.61,0,0,1-.18.51A.64.64,0,0,1,73.27,77.23Z" fill="#f55b5d"/><path d="M62.18,81.86a52,52,0,0,0,19.45-.27S81,90,71.64,90C63.73,90,62.18,81.86,62.18,81.86Z" fill="#f5efff"/><path d="M62.18,63.46c0,2.22-1,4-2.26,4s-2.25-1.8-2.25-4,1-4,2.25-4S62.18,61.24,62.18,63.46Z" fill="#19274b"/><path d="M86.14,63.46c0,2.22-1,4-2.26,4s-2.25-1.8-2.25-4,1-4,2.25-4S86.14,61.24,86.14,63.46Z" fill="#19274b"/><path d="M55.93,54.66a19.94,19.94,0,0,1,6.13-2.23,1.91,1.91,0,0,0,1.56-2.53l-.09-.23a1.9,1.9,0,0,0-2-1.26c-2,.21-5.56.91-7.87,3.22a1.92,1.92,0,0,0-.47,1.92h0A1.91,1.91,0,0,0,55.93,54.66Z" fill="#19274b"/><path d="M87.94,54.66a19.94,19.94,0,0,0-6.13-2.23,1.91,1.91,0,0,1-1.56-2.53l.09-.23a1.9,1.9,0,0,1,2-1.26c2,.21,5.56.91,7.87,3.22a1.92,1.92,0,0,1,.47,1.92h0A1.91,1.91,0,0,1,87.94,54.66Z" fill="#19274b"/><path d="M72,93.54a10.4,10.4,0,0,1-4-.82.62.62,0,0,1-.32-.84.63.63,0,0,1,.85-.32s4,1.74,7.15-.34a.65.65,0,0,1,.89.18.64.64,0,0,1-.19.89A7.79,7.79,0,0,1,72,93.54Z" fill="#f55b5d"/></g></g></svg>