<svg xmlns="http://www.w3.org/2000/svg" viewBox="0 0 149.02 161.27"><g id="Layer_2" data-name="Layer 2"><g id="OBJECTS"><path d="M149,161.27H0s2-9.48,4.85-19,8.75-13.51,16.37-15.47c2.15-.55,6.09-1.69,10.64-3l5.47-1.64,2.63-.8c9.6-2.92,19-5.83,19-5.83l15.5-1.24h.18l14,1.12s8.41,2.52,17.59,5.23l5.33,1.57c6.87,2,13.36,3.89,16.29,4.64,7.63,2,13.52,5.94,16.37,15.47S149,161.27,149,161.27Z" fill="#19274b"/><path d="M111.5,122.16a60.49,60.49,0,0,1-5.07,14c-5.11,9.89-14.3,19.59-30.66,19.59C58.44,155.76,48.52,145.7,43,136a58.85,58.85,0,0,1-5.67-13.93l2.63-.8c9.6-2.92,19-5.83,19-5.83l15.5-1.24h.18l14,1.12s8.41,2.52,17.59,5.23Z" fill="#ff8881"/><path d="M55,118.24a1.55,1.55,0,0,1-1.09-.45,2.11,2.11,0,0,1-.19-.23,1.74,1.74,0,0,1-.14-.27,1.4,1.4,0,0,1-.09-.29,1.51,1.51,0,0,1,0-.6,1.61,1.61,0,0,1,.09-.29,1.3,1.3,0,0,1,.14-.26,1.55,1.55,0,0,1,.19-.24,1.6,1.6,0,0,1,1.09-.45,1.58,1.58,0,0,1,1.09.45,1.55,1.55,0,0,1,.19.24,2.15,2.15,0,0,1,.14.26,1.61,1.61,0,0,1,.09.29,1.52,1.52,0,0,1,0,.6,1.4,1.4,0,0,1-.09.29c0,.09-.09.18-.14.27a2.11,2.11,0,0,1-.19.23,1.37,1.37,0,0,1-.23.19,1.74,1.74,0,0,1-.27.14,1.4,1.4,0,0,1-.29.09A1.53,1.53,0,0,1,55,118.24Z" fill="#f5efff"/><path d="M74.61,133.92h0a1.54,1.54,0,0,1-1.53-1.55h0a1.53,1.53,0,0,1,1.55-1.53h0a1.53,1.53,0,0,1,1.54,1.54h0a1.55,1.55,0,0,1-1.54,1.54ZM77,132.34a1.54,1.54,0,0,1,1.31-1.74h0a1.55,1.55,0,0,1,1.74,1.32h0a1.55,1.55,0,0,1-1.32,1.73h-.21A1.52,1.52,0,0,1,77,132.34Zm-6.56,1.28a1.53,1.53,0,0,1-1.3-1.75h0a1.52,1.52,0,0,1,1.74-1.29h0a1.54,1.54,0,0,1,1.3,1.74h0a1.54,1.54,0,0,1-1.52,1.32h0Zm10.46-1.89a1.53,1.53,0,0,1,1-1.94h0a1.53,1.53,0,0,1,1.94,1h0a1.53,1.53,0,0,1-1,1.94h0a1.61,1.61,0,0,1-.48.08h0A1.54,1.54,0,0,1,80.92,131.73Zm-14.57.92a1.55,1.55,0,0,1-1-2h0a1.54,1.54,0,0,1,2-1h0a1.54,1.54,0,0,1,1,2h0a1.52,1.52,0,0,1-1.45,1h0A1.74,1.74,0,0,1,66.35,132.65Zm18.29-2.23a1.56,1.56,0,0,1,.54-2.12h0a1.54,1.54,0,0,1,2.11.54h0a1.55,1.55,0,0,1-.54,2.11h0a1.58,1.58,0,0,1-.78.21h0A1.54,1.54,0,0,1,84.64,130.42Zm-22.16.44a1.54,1.54,0,0,1-.53-2.11h0a1.56,1.56,0,0,1,2.12-.53h0a1.55,1.55,0,0,1,.52,2.12h0a1.56,1.56,0,0,1-1.32.74h0A1.5,1.5,0,0,1,62.48,130.86ZM88,128.3a1.55,1.55,0,0,1,0-2.18h0a1.54,1.54,0,0,1,2.18,0h0a1.54,1.54,0,0,1,0,2.17h0a1.53,1.53,0,0,1-1.09.45h0A1.55,1.55,0,0,1,88,128.3Zm-28.9-.08h0a1.55,1.55,0,0,1,0-2.18h0a1.53,1.53,0,0,1,2.17,0h0a1.55,1.55,0,0,1,0,2.18h0a1.56,1.56,0,0,1-1.1.46h0A1.52,1.52,0,0,1,59.08,128.22Zm31.63-2.79a1.53,1.53,0,0,1-.5-2.12h0a1.55,1.55,0,0,1,2.12-.5h0a1.55,1.55,0,0,1,.5,2.12h0a1.55,1.55,0,0,1-1.32.73h0A1.48,1.48,0,0,1,90.71,125.43Zm-34.31-.55h0a1.54,1.54,0,0,1,.48-2.13h0a1.54,1.54,0,0,1,2.12.48h0a1.54,1.54,0,0,1-.48,2.12h0a1.47,1.47,0,0,1-.82.24h0A1.53,1.53,0,0,1,56.4,124.88ZM92.7,122a1.54,1.54,0,0,1-.94-2h0a1.55,1.55,0,0,1,2-.94h0a1.53,1.53,0,0,1,.93,2h0a1.53,1.53,0,0,1-1.45,1h0A1.52,1.52,0,0,1,92.7,122Zm-38.19-1h0a1.53,1.53,0,0,1,.91-2h0a1.54,1.54,0,0,1,2,.9h0a1.54,1.54,0,0,1-.91,2h0a1.46,1.46,0,0,1-.53.1h0A1.55,1.55,0,0,1,54.51,121.05Z" fill="#f5efff"/><path d="M94.12,118.24a1.53,1.53,0,0,1-.3,0,1.61,1.61,0,0,1-.29-.09,1.3,1.3,0,0,1-.26-.14,1.12,1.12,0,0,1-.24-.19,2.11,2.11,0,0,1-.19-.23c0-.09-.1-.18-.14-.27a1.4,1.4,0,0,1-.09-.29,1.51,1.51,0,0,1,0-.6,1.61,1.61,0,0,1,.09-.29,2.15,2.15,0,0,1,.14-.26,1.33,1.33,0,0,1,.43-.43l.26-.14a1.61,1.61,0,0,1,.29-.09,1.51,1.51,0,0,1,.6,0,1.4,1.4,0,0,1,.29.09l.26.14a1.33,1.33,0,0,1,.43.43,1.3,1.3,0,0,1,.14.26,1.61,1.61,0,0,1,.09.29,1.52,1.52,0,0,1,0,.6,1.4,1.4,0,0,1-.09.29,1.74,1.74,0,0,1-.14.27,2.11,2.11,0,0,1-.19.23A1.12,1.12,0,0,1,95,118a1.3,1.3,0,0,1-.26.14,1.4,1.4,0,0,1-.29.09A1.53,1.53,0,0,1,94.12,118.24Z" fill="#f5efff"/><path d="M106.43,136.17c-5.11,9.89-14.3,19.59-30.66,19.59C58.44,155.76,48.52,145.7,43,136,57.17,139.51,81.28,143.05,106.43,136.17Z" fill="#f5efff"/><polygon points="74.6 114.23 74.6 114.24 74.51 114.23 74.6 114.23" fill="#5d46c2"/><polygon points="74.51 114.23 74.42 114.24 74.42 114.23 74.51 114.23" fill="#5d46c2"/><path d="M93.57,22.64a20.54,20.54,0,0,1-.84,2.51c-.15.36-.31.73-.48,1.09-.08.17-.17.34-.25.52a18.39,18.39,0,0,1-16.44,10h-6a18.41,18.41,0,0,1-12.9-5.22,25.7,25.7,0,0,1-4.22-5.3c-.2-.34-.39-.7-.57-1.06s-.22-.46-.32-.69C49.37,19.15,50.52,11,56.45,5.69,71.19-7.63,98.34,4.25,93.57,22.64Z" fill="#e9356e"/><path d="M93.57,22.64a20.54,20.54,0,0,1-.84,2.51c-.15.36-.31.73-.48,1.09-.08.17-.17.34-.25.52a18.39,18.39,0,0,1-16.44,10h-6a18.41,18.41,0,0,1-12.9-5.22,25.7,25.7,0,0,1-4.22-5.3c-.2-.34-.39-.7-.57-1.06s-.22-.46-.32-.69a39.57,39.57,0,0,1,21.82-6.59A48.15,48.15,0,0,1,93.57,22.64Z" fill="#ffac32"/><circle cx="73.18" cy="58.53" r="37.77" fill="#e9356e"/><path d="M88.33,119.16s-3.85,7.22-14.64,7.22a17.25,17.25,0,0,1-14.8-7.58l.63-5.19.11-.88,1-8.17,25.78.72.43,3.11.14,1Z" fill="#ff8881"/><path d="M86.84,108.39c-5.84,5-15.29,6.83-27.32,5.22l.11-.88,1-8.17,25.78.72Z" fill="#19274b"/><path d="M51,83.28c-5.76,8-18.18,2.61-17.33-8.07.77-9.69,11.59-8.16,11.59-8.16Z" fill="#f55b5d"/><path d="M43.34,83.19a2,2,0,1,1-2-2A2,2,0,0,1,43.34,83.19Z" fill="#f5efff"/><path d="M45.65,83.48a.77.77,0,0,1-.75-.58C43.77,78.3,39,74,39,74a.77.77,0,0,1-.07-1.09A.78.78,0,0,1,40,72.84c.21.19,5.16,4.64,6.4,9.69a.77.77,0,0,1-.56.93A.55.55,0,0,1,45.65,83.48Z" fill="#d1373f"/><path d="M43.66,79.13a.67.67,0,0,1-.24,0,8.53,8.53,0,0,0-4.14-.27.77.77,0,0,1-.34-1.51,10.17,10.17,0,0,1,5,.32.76.76,0,0,1,.48,1A.78.78,0,0,1,43.66,79.13Z" fill="#d1373f"/><path d="M93.65,83.28c5.76,8,18.18,2.61,17.33-8.07-.77-9.69-11.59-8.16-11.59-8.16Z" fill="#f55b5d"/><path d="M105.17,83.19a2,2,0,1,1-2-2A2,2,0,0,1,105.17,83.19Z" fill="#f5efff"/><path d="M99,83.48a.55.55,0,0,1-.18,0,.76.76,0,0,1-.56-.93c1.23-5,6.19-9.5,6.4-9.69a.78.78,0,0,1,1.09.06.77.77,0,0,1-.07,1.09s-4.81,4.32-5.93,8.91A.77.77,0,0,1,99,83.48Z" fill="#d1373f"/><path d="M100.94,79.13a.77.77,0,0,1-.73-.53.76.76,0,0,1,.48-1,10.17,10.17,0,0,1,5-.32.78.78,0,0,1,.58.92.77.77,0,0,1-.92.59,8.53,8.53,0,0,0-4.14.27A.67.67,0,0,1,100.94,79.13Z" fill="#d1373f"/><path d="M42.91,55.29S40.1,72.75,47.39,89.83c6.62,15.48,15.42,20.3,24.78,20.45,10.65.17,33-6,29.42-56.52C99.21,19.61,45.73,20.82,42.91,55.29Z" fill="#ff8881"/><path d="M93.65,44s5,13.49,7.62,16.94L104.19,52s-2.11-25.82-32-25.82C41.26,26.16,42.32,52,42.32,52L45,64.13s7.78-11.6,8.37-19.29c0,0,10.34,11.45,19.91,10.09,0,0-3.51-3.76-4.45-6.67,0,0,16.72,8.82,27.91,5.64A20.31,20.31,0,0,1,93.65,44Z" fill="#e9356e"/><path d="M42.32,52s-3.62,8.28-1.57,15.71S51.37,83.78,45.3,92.5s.54,21.29,9.68,19c0,0-9.55-1-9.07-10.91s10.64-11.92,3-25.9-.77-24.87-.77-24.87Z" fill="#e9356e"/><path d="M104.19,52s3.61,8.28,1.56,15.71S95.13,83.78,101.2,92.5s-.54,21.29-9.68,19c0,0,9.56-1,9.08-10.91S90,88.65,97.65,74.67s.77-24.87.77-24.87Z" fill="#e9356e"/><path d="M52.86,64.13S56.94,58.46,64,57.72a2,2,0,0,1,2.22,1.9v0a2,2,0,0,1-2,2.16A28.49,28.49,0,0,0,52.86,64.13Z" fill="#e9356e"/><path d="M92.3,64.13s-4.08-5.67-11.11-6.41A2,2,0,0,0,79,59.62v0a2,2,0,0,0,2,2.16A28.52,28.52,0,0,1,92.3,64.13Z" fill="#e9356e"/><path d="M73.49,101.21a10.53,10.53,0,0,1-4-.82.65.65,0,0,1-.32-.85.65.65,0,0,1,.85-.32h0s4,1.76,7.17-.33a.64.64,0,1,1,.71,1.07A7.87,7.87,0,0,1,73.49,101.21Z" fill="#f55b5d"/><path d="M75.77,84.87h-.06L71,84.49a.64.64,0,0,1-.59-.69.65.65,0,0,1,.69-.59l3.92.32L73.83,71.61a.64.64,0,1,1,1.27-.13l1.3,12.68a.64.64,0,0,1-.63.71Z" fill="#f55b5d"/><path d="M63.43,90a52.27,52.27,0,0,0,19.5-.27s-.68,8.4-10,8.43C65,98.17,63.43,90,63.43,90Z" fill="#f5efff"/><path d="M63,71.55c0,2.22-1,4-2.26,4s-2.25-1.8-2.25-4,1-4,2.25-4S63,69.32,63,71.55Z" fill="#19274b"/><path d="M87,71.55c0,2.22-1,4-2.26,4s-2.25-1.8-2.25-4,1-4,2.25-4S87,69.32,87,71.55Z" fill="#19274b"/><path d="M54.72,79.8a.69.69,0,1,1-.69-.69A.69.69,0,0,1,54.72,79.8Z" fill="#f55b5d"/><path d="M58.1,81.47a.69.69,0,1,1-.69-.69A.69.69,0,0,1,58.1,81.47Z" fill="#f55b5d"/><path d="M54.72,83.88a.69.69,0,1,1-.69-.69A.69.69,0,0,1,54.72,83.88Z" fill="#f55b5d"/><path d="M60,84.57a.7.7,0,1,1-.7-.69A.69.69,0,0,1,60,84.57Z" fill="#f55b5d"/><path d="M63.58,83.88a.7.7,0,1,1-.7-.69A.69.69,0,0,1,63.58,83.88Z" fill="#f55b5d"/><path d="M62,80.49a.7.7,0,1,1-.7-.69A.7.7,0,0,1,62,80.49Z" fill="#f55b5d"/><path d="M92.07,79.8a.69.69,0,1,0,.69-.69A.69.69,0,0,0,92.07,79.8Z" fill="#f55b5d"/><circle cx="89.38" cy="81.47" r="0.69" fill="#f55b5d"/><path d="M92.07,83.88a.69.69,0,1,0,.69-.69A.69.69,0,0,0,92.07,83.88Z" fill="#f55b5d"/><path d="M86.75,84.57a.7.7,0,1,0,.7-.69A.69.69,0,0,0,86.75,84.57Z" fill="#f55b5d"/><path d="M83.21,83.88a.7.7,0,1,0,.7-.69A.69.69,0,0,0,83.21,83.88Z" fill="#f55b5d"/><path d="M84.82,80.49a.7.7,0,1,0,.7-.69A.7.7,0,0,0,84.82,80.49Z" fill="#f55b5d"/></g></g></svg>