<svg xmlns="http://www.w3.org/2000/svg" viewBox="0 0 150.58 146.19"><g style="isolation:isolate"><g id="Layer_2" data-name="Layer 2"><g id="OBJECTS"><path d="M150.58,146.19H0c.13-.85.3-1.8.49-2.81s.43-2.17.69-3.34c.39-1.78.84-3.66,1.34-5.55.3-1.12.61-2.24.94-3.34.57-1.94,1.2-3.82,1.86-5.55.45-1.2.92-2.32,1.41-3.33a17.27,17.27,0,0,1,2.14-3.54,12.23,12.23,0,0,1,2.3-2,42.76,42.76,0,0,1,5.88-3.33,142.4,142.4,0,0,1,13.73-5.55c5.15-1.82,9.13-3,9.13-3l1.27-.32,17.49-4.4H85.12l18.58,4.4,3.78.9s4.14.94,9.49,2.44a122.3,122.3,0,0,1,16.17,5.55,26.46,26.46,0,0,1,5.78,3.33,7.94,7.94,0,0,1,1,1,25,25,0,0,1,2.78,4.57c.51,1,1,2.15,1.52,3.33.75,1.75,1.48,3.63,2.17,5.55.4,1.11.78,2.23,1.15,3.34.62,1.9,1.18,3.79,1.66,5.55.31,1.17.59,2.3.83,3.34S150.45,145.35,150.58,146.19Z" fill="#5d46c2"/><path d="M117,107.83H30.78c5.15-1.82,9.13-3,9.13-3l1.27-.32H103.7l3.78.9S111.62,106.33,117,107.83Z" fill="#8054f3"/><path d="M138.92,116.71H11.17a42.76,42.76,0,0,1,5.88-3.33H133.14A26.46,26.46,0,0,1,138.92,116.71Z" fill="#8054f3"/><path d="M144.23,125.6H5.32c.45-1.2.92-2.32,1.41-3.33h136C143.22,123.3,143.73,124.42,144.23,125.6Z" fill="#8054f3"/><path d="M147.55,134.49H2.52c.3-1.12.61-2.24.94-3.34H146.4C146.8,132.26,147.18,133.38,147.55,134.49Z" fill="#8054f3"/><path d="M150,143.38H.49c.2-1,.43-2.17.69-3.34h148C149.52,141.21,149.8,142.34,150,143.38Z" fill="#8054f3"/><g opacity="0.5" style="mix-blend-mode:multiply"><path d="M82.88,141.61a55.66,55.66,0,0,1-22-4.61A54.55,54.55,0,0,1,46,127.75a.77.77,0,0,1,0-1.09.76.76,0,0,1,1.08,0,54.13,54.13,0,0,0,14.44,9,53.25,53.25,0,0,0,36.87,2.13.77.77,0,0,1,1,.51.76.76,0,0,1-.51,1A54.84,54.84,0,0,1,82.88,141.61Z" fill="#491a90"/></g><g opacity="0.5" style="mix-blend-mode:multiply"><path d="M85.74,136.84c-12.36,0-22.66-7.67-23.13-8a.76.76,0,0,1-.15-1.07.77.77,0,0,1,1.08-.15c.12.09,12.14,9,25.26,7.54a.77.77,0,1,1,.17,1.53A29.55,29.55,0,0,1,85.74,136.84Z" fill="#491a90"/></g><path d="M73.32,128.47c-8.87,0-15.67-4.52-19.7-13.12A39.48,39.48,0,0,1,50.18,102a1.28,1.28,0,0,1,1.21-1.35,1.3,1.3,0,0,1,1.35,1.22A37.62,37.62,0,0,0,56,114.33c3.73,7.91,9.8,11.8,18,11.57s14-4.26,17.2-12A33.89,33.89,0,0,0,93.57,102a1.28,1.28,0,1,1,2.56,0,35.94,35.94,0,0,1-2.53,12.88c-3.53,8.65-10.28,13.37-19.52,13.63Z" fill="#ffac32"/><path d="M40.63,69.55s-2.56,6.08,0,9.67a7.19,7.19,0,0,0,6.61,3S44.89,91.7,52.09,93s8.58-4.37,8.58-4.37S54.91,65.18,40.63,69.55Z" fill="#19274b"/><path d="M101.67,69.55s2.56,6.08,0,9.67a7.19,7.19,0,0,1-6.61,3S97.41,91.7,90.21,93s-8.58-4.37-8.58-4.37S87.39,65.18,101.67,69.55Z" fill="#19274b"/><path d="M87.49,104.24s-3.85,7.21-14.61,7.21a17.24,17.24,0,0,1-14.78-7.56l.64-5.19.1-.87,1-8.16,25.73.72.43,3.1.14,1Z" fill="#ff8881"/><path d="M86,93.49c-5.83,4.94-15.26,6.82-27.26,5.21l.1-.87,1-8.16,25.73.72Z" fill="#19274b"/><path d="M50.18,68.44c-5.75,8-18.14,2.6-17.3-8.06.77-9.67,11.57-8.14,11.57-8.14Z" fill="#f55b5d"/><path d="M44.88,68.64a.76.76,0,0,1-.74-.58c-1.12-4.58-5.88-8.85-5.92-8.9a.76.76,0,1,1,1-1.14c.21.18,5.16,4.62,6.39,9.67a.77.77,0,0,1-.56.93Z" fill="#d1373f"/><path d="M42.9,64.29a.67.67,0,0,1-.24,0A8.79,8.79,0,0,0,38.53,64a.77.77,0,1,1-.34-1.5,10.13,10.13,0,0,1,5,.32.77.77,0,0,1-.25,1.49Z" fill="#d1373f"/><path d="M92.79,68.44c5.75,8,18.15,2.6,17.3-8.06-.77-9.67-11.57-8.14-11.57-8.14Z" fill="#f55b5d"/><path d="M98.09,68.64l-.19,0a.77.77,0,0,1-.56-.93c1.24-5,6.18-9.49,6.39-9.67a.76.76,0,1,1,1,1.14c0,.05-4.8,4.32-5.92,8.9A.76.76,0,0,1,98.09,68.64Z" fill="#d1373f"/><path d="M100.07,64.29a.77.77,0,0,1-.73-.52.76.76,0,0,1,.48-1,10.12,10.12,0,0,1,5-.32.77.77,0,1,1-.34,1.5h0a8.79,8.79,0,0,0-4.13.27A.67.67,0,0,1,100.07,64.29Z" fill="#d1373f"/><path d="M42.16,40.5S39.35,57.93,46.63,75c6.6,15.45,16.43,20.26,25.77,20.41,10.63.16,31.84-6,28.32-56.41C98.34,4.89,45,6.1,42.16,40.5Z" fill="#ff8881"/><g opacity="0.5"><path d="M60.86,68.35c0,1.89-3.32,3.42-7.4,3.42s-7.4-1.53-7.4-3.42,3.31-3.41,7.4-3.41S60.86,66.47,60.86,68.35Z" fill="#f55b5d"/></g><g opacity="0.5"><path d="M97.75,68.35c0,1.89-3.31,3.42-7.4,3.42S83,70.24,83,68.35s3.31-3.41,7.4-3.41S97.75,66.47,97.75,68.35Z" fill="#f55b5d"/></g><path d="M73.27,70.5h0l-4.68-.37a.64.64,0,0,1-.58-.69.63.63,0,0,1,.69-.59l3.91.31L71.34,57.26a.64.64,0,1,1,1.27-.13l1.3,12.66a.6.6,0,0,1-.18.51A.61.61,0,0,1,73.27,70.5Z" fill="#f55b5d"/><path d="M45.46,50.91c.35,3.94-1.79,8.88-5.14,6.79-1.49-.93-1.37-3.75-2-7.18-.7-4.05,1.17-3.28-3-8.73C31,36,33.92,27.52,38.36,27.28c0,0-5.52-8.89,2.27-15.75,7-6.17,13.17-1.8,13.17-1.8S55.11,1.31,62.43.14,75.54,5.41,75.54,5.41A11.87,11.87,0,0,1,89,2c8.68,3,6,9.3,6,9.3s8.66-1,12.17,5.45a8.47,8.47,0,0,1-.94,9.79s3.84,2.52,3,9.28c-.68,5.79-5,6.24-5.09,10.22a34.74,34.74,0,0,1-.92,6.66c-.32,1.45-1.76,4-3.25,4h0c-1.93,0-3.27-3.19-3-5.1.41-3.22.54-7.81-1.44-10.46-3.28-4.36-1.3-10-6.58-11.54s-22.75,6.86-35.23-.15c0,0,.75,6.9-3.62,8.92s-5.06,9.4-4.72,12.52Z" fill="#19274b"/><path d="M62.18,75.13a52.24,52.24,0,0,0,19.45-.28s-.68,8.38-10,8.42C63.73,83.3,62.18,75.13,62.18,75.13Z" fill="#f5efff"/><path d="M62.18,56.72c0,2.22-1,4-2.26,4s-2.25-1.8-2.25-4,1-4,2.25-4S62.18,54.51,62.18,56.72Z" fill="#19274b"/><path d="M86.14,56.72c0,2.22-1,4-2.26,4s-2.25-1.8-2.25-4,1-4,2.25-4S86.14,54.51,86.14,56.72Z" fill="#19274b"/><path d="M55.93,47.92a19.94,19.94,0,0,1,6.13-2.22,1.92,1.92,0,0,0,1.56-2.54l-.09-.23a1.9,1.9,0,0,0-2-1.26c-2,.22-5.56.92-7.87,3.22a1.92,1.92,0,0,0-.47,1.92h0A1.91,1.91,0,0,0,55.93,47.92Z" fill="#19274b"/><path d="M87.94,47.92a19.94,19.94,0,0,0-6.13-2.22,1.92,1.92,0,0,1-1.56-2.54l.09-.23a1.9,1.9,0,0,1,2-1.26c2,.22,5.56.92,7.87,3.22a1.9,1.9,0,0,1,.47,1.92h0A1.91,1.91,0,0,1,87.94,47.92Z" fill="#19274b"/><path d="M72,86.8A10.7,10.7,0,0,1,68,86a.64.64,0,1,1,.53-1.17s4,1.75,7.15-.34a.64.64,0,0,1,.7,1.08A7.77,7.77,0,0,1,72,86.8Z" fill="#f55b5d"/><path d="M58.05,69.9A11.31,11.31,0,1,1,69.36,58.59,11.32,11.32,0,0,1,58.05,69.9Zm0-21.59A10.28,10.28,0,1,0,68.33,58.59,10.29,10.29,0,0,0,58.05,48.31Z" fill="#f5efff"/><path d="M85.27,69.9A11.31,11.31,0,1,1,96.58,58.59,11.33,11.33,0,0,1,85.27,69.9Zm0-21.59A10.28,10.28,0,1,0,95.55,58.59,10.29,10.29,0,0,0,85.27,48.31Z" fill="#f5efff"/><path d="M95.42,55.44a.52.52,0,0,1-.38-.86,9.91,9.91,0,0,1,8.49-2.93.52.52,0,0,1,.43.59.53.53,0,0,1-.59.42,9,9,0,0,0-7.57,2.61A.52.52,0,0,1,95.42,55.44Z" fill="#f5efff"/><path d="M48,55.23a.52.52,0,0,1-.37-.16h0S43.52,51,38.52,52.64a.52.52,0,0,1-.65-.33.51.51,0,0,1,.33-.64c5.62-1.89,10,2.5,10.14,2.69a.52.52,0,0,1-.36.87Z" fill="#f5efff"/><path d="M68.84,57.55h0a.51.51,0,0,1-.48-.54c.06-.9.83-2.6,3.33-2.6S74.93,56.11,75,57a.52.52,0,0,1-1,.06c0-.16-.19-1.63-2.3-1.63s-2.3,1.57-2.3,1.63A.52.52,0,0,1,68.84,57.55Z" fill="#f5efff"/></g></g></g></svg>