<svg xmlns="http://www.w3.org/2000/svg" viewBox="0 0 149.02 141.93"><g id="Layer_2" data-name="Layer 2"><g id="OBJECTS"><path d="M66.06.52S48,1.63,40.64,18.09c-7.54,16.84-2.5,26.33-12.24,36S15.61,77.15,26.34,85.22c12.77,9.61,28.1-1.52,40.27,3.34C95.34,100,130,86,122.18,64.89c-3.73-10.08-10.55-6.91-14-34.54C106,13.34,93.72-3.15,66.06.52Z" fill="#19274b"/><path d="M149,141.93H0s2-9.48,4.85-19,8.75-13.51,16.37-15.47c2.15-.55,6.09-1.69,10.64-3L40,102c9.6-2.91,19-5.83,19-5.83l15.5-1.24h.18l14,1.12s8.41,2.52,17.59,5.24c8.62,2.54,17.93,5.26,21.62,6.2,7.63,2,13.52,6,16.37,15.47S149,141.93,149,141.93Z" fill="#ffac32"/><path d="M34.55,128.57a32.6,32.6,0,0,1-3.36,13.36H0s2-9.48,4.85-19,8.75-13.51,16.37-15.47c2.15-.55,6.09-1.69,10.64-3C34,109.82,35.15,120.19,34.55,128.57Z" fill="#ff8881"/><path d="M114.47,128.57a32.29,32.29,0,0,0,3.36,13.36H149s-2-9.48-4.85-19-8.75-13.51-16.37-15.47c-2.15-.55-6.09-1.69-10.64-3C115,109.82,113.87,120.19,114.47,128.57Z" fill="#ff8881"/><path d="M106.17,101.26c-2,10.64-8.74,31-31.49,32.07C49.44,134.5,41.88,110.71,40,102c9.6-2.91,19-5.83,19-5.83l15.5-1.24h.18l14,1.12S97,98.54,106.17,101.26Z" fill="#ff8881"/><path d="M74.6,116c-10.09,0-15.89-5.09-19-9.36a26.26,26.26,0,0,1-4.31-9.33,1,1,0,1,1,2-.41,24.75,24.75,0,0,0,4,8.59c4.09,5.61,9.9,8.45,17.28,8.45s12.87-2.84,16.33-8.44A22,22,0,0,0,94,97a1,1,0,0,1,2,.2,24.13,24.13,0,0,1-3.34,9.38C90,110.88,84.73,116,74.6,116Z" fill="#f5efff"/><polygon points="74.6 94.89 74.6 94.9 74.51 94.9 74.6 94.89" fill="#5d46c2"/><polygon points="74.51 94.9 74.42 94.9 74.42 94.89 74.51 94.9" fill="#5d46c2"/><path d="M88.33,99.82S84.48,107,73.69,107a17.25,17.25,0,0,1-14.8-7.58l.63-5.19.11-.87,1-8.18,25.78.72.43,3.11.14,1Z" fill="#ff8881"/><path d="M86.84,89.05C81,94,71.55,95.88,59.52,94.27l.11-.87,1-8.18,25.78.72Z" fill="#19274b"/><path d="M51,63.94c-5.76,8-18.18,2.61-17.33-8.07.77-9.69,11.59-8.15,11.59-8.15Z" fill="#f55b5d"/><path d="M47.63,65.07a11.17,11.17,0,1,1-4.78-.82,5,5,0,0,1,.24,1.15,10.88,10.88,0,0,0-1.4.14,10.16,10.16,0,1,0,6.11.87Z" fill="#f5efff"/><path d="M45.65,64.15a.78.78,0,0,1-.75-.59C43.77,59,39,54.7,39,54.65a.76.76,0,0,1-.07-1.08A.77.77,0,0,1,40,53.5c.21.19,5.16,4.64,6.4,9.69a.77.77,0,0,1-.56.94Z" fill="#d1373f"/><path d="M43.66,59.79a.67.67,0,0,1-.24,0,8.68,8.68,0,0,0-4.14-.27.77.77,0,0,1-.34-1.5,10.24,10.24,0,0,1,5,.31.77.77,0,0,1-.25,1.5Z" fill="#d1373f"/><path d="M93.65,63.94c5.76,8,18.18,2.61,17.33-8.07-.77-9.69-11.59-8.15-11.59-8.15Z" fill="#f55b5d"/><path d="M98.36,65.07a11.2,11.2,0,1,0,4.79-.82,4.53,4.53,0,0,0-.24,1.15,10.55,10.55,0,0,1,1.39.14,10.16,10.16,0,1,1-6.1.87Z" fill="#f5efff"/><path d="M99,64.15l-.18,0a.77.77,0,0,1-.56-.94c1.23-5,6.19-9.5,6.4-9.69a.77.77,0,0,1,1.09.07.76.76,0,0,1-.07,1.08c0,.05-4.81,4.33-5.93,8.91A.78.78,0,0,1,99,64.15Z" fill="#d1373f"/><path d="M100.94,59.79a.77.77,0,0,1-.25-1.5,10.24,10.24,0,0,1,5-.31.77.77,0,1,1-.34,1.5,8.69,8.69,0,0,0-4.14.27A.67.67,0,0,1,100.94,59.79Z" fill="#d1373f"/><path d="M42.91,36S40.1,53.41,47.39,70.49C54,86,62.81,90.79,72.17,90.94c10.65.17,33-6,29.42-56.52C99.21.28,45.73,1.48,42.91,36Z" fill="#ff8881"/><path d="M100.94,37.73c-14.4.37-24.47-3.48-30.93-7.42a23.06,23.06,0,0,0,7.12,5.93c-9.29,2.38-15.29-6.44-17.87-11.42a49,49,0,0,1-16.7,15.8C36.61,4.28,62.17,1.26,82.93,3.23,102.34,5.07,112,37.44,100.94,37.73Z" fill="#19274b"/><path d="M50.74,33.51s-5.09,10.11-3.42,20.57c1.62,10.08.89,19.78-4.08,21.49,0,0,3.38-4.84.29-13.17S39.63,43,41.68,37.93,50.74,33.51,50.74,33.51Z" fill="#19274b"/><path d="M94.6,33.51S99.7,43.62,98,54.08c-1.61,10.08-.89,19.78,4.09,21.49,0,0-3.38-4.84-.3-13.17s3.91-19.37,1.85-24.47S94.6,33.51,94.6,33.51Z" fill="#19274b"/><path d="M52.86,44.79S56.94,39.12,64,38.38a2,2,0,0,1,2.22,1.91v0a2,2,0,0,1-2,2.15A28.49,28.49,0,0,0,52.86,44.79Z" fill="#19274b"/><path d="M92.3,44.79s-4.08-5.67-11.11-6.41A2,2,0,0,0,79,40.29v0a2,2,0,0,0,2,2.15A28.52,28.52,0,0,1,92.3,44.79Z" fill="#19274b"/><path d="M73.49,81.87a10.85,10.85,0,0,1-4-.81.65.65,0,0,1-.32-.85.64.64,0,0,1,.85-.32c.06,0,4,1.75,7.17-.34a.64.64,0,0,1,.71,1.07A7.79,7.79,0,0,1,73.49,81.87Z" fill="#f55b5d"/><path d="M75.77,65.53h-.06L71,65.15a.63.63,0,0,1-.59-.69.64.64,0,0,1,.69-.58l3.92.31L73.83,52.27a.64.64,0,0,1,1.27-.13l1.3,12.69a.64.64,0,0,1-.63.7Z" fill="#f55b5d"/><path d="M63.43,70.65a52.08,52.08,0,0,0,19.5-.28s-.68,8.4-10,8.44C65,78.84,63.43,70.65,63.43,70.65Z" fill="#f5efff"/><path d="M63,52.21c0,2.22-1,4-2.26,4s-2.25-1.8-2.25-4,1-4,2.25-4S63,50,63,52.21Z" fill="#19274b"/><path d="M87,52.21c0,2.22-1,4-2.26,4s-2.25-1.8-2.25-4,1-4,2.25-4S87,50,87,52.21Z" fill="#19274b"/><path d="M54.72,60.47a.69.69,0,1,1-.69-.7A.69.69,0,0,1,54.72,60.47Z" fill="#f55b5d"/><path d="M58.1,62.14a.69.69,0,1,1-.69-.7A.69.69,0,0,1,58.1,62.14Z" fill="#f55b5d"/><path d="M54.72,64.54a.69.69,0,1,1-.69-.69A.69.69,0,0,1,54.72,64.54Z" fill="#f55b5d"/><circle cx="59.34" cy="65.24" r="0.69" fill="#f55b5d"/><circle cx="62.88" cy="64.54" r="0.69" fill="#f55b5d"/><path d="M62,61.16a.7.7,0,1,1-.7-.69A.69.69,0,0,1,62,61.16Z" fill="#f55b5d"/><circle cx="92.76" cy="60.47" r="0.69" fill="#f55b5d"/><circle cx="89.38" cy="62.14" r="0.69" fill="#f55b5d"/><circle cx="92.76" cy="64.54" r="0.69" fill="#f55b5d"/><circle cx="87.45" cy="65.24" r="0.69" fill="#f55b5d"/><path d="M83.21,64.54a.7.7,0,1,0,.7-.69A.7.7,0,0,0,83.21,64.54Z" fill="#f55b5d"/><circle cx="85.52" cy="61.16" r="0.69" fill="#f55b5d"/></g></g></svg>