<svg xmlns="http://www.w3.org/2000/svg" xmlns:xlink="http://www.w3.org/1999/xlink" viewBox="0 0 2775.59 2788.57"><defs><linearGradient id="linear-gradient" x1="3604.08" y1="4066.61" x2="1122.77" y2="984.98" gradientUnits="userSpaceOnUse"><stop offset="0" stop-color="#b37cff"/><stop offset="1" stop-color="#f895e7"/></linearGradient><linearGradient id="linear-gradient-2" x1="-3087.42" y1="3120.53" x2="-2875.17" y2="3120.53" gradientTransform="translate(4643.09)" gradientUnits="userSpaceOnUse"><stop offset="0" stop-color="#53d8ff"/><stop offset="1" stop-color="#3840f7"/></linearGradient><linearGradient id="linear-gradient-3" x1="-3087.43" y1="3078.94" x2="-2881.16" y2="3078.94" gradientTransform="translate(4643.09)" gradientUnits="userSpaceOnUse"><stop offset="0" stop-color="#2b3582"/><stop offset="1" stop-color="#150e42"/></linearGradient><linearGradient id="linear-gradient-4" x1="-3067.82" y1="3020.86" x2="-3008.04" y2="3020.86" gradientTransform="translate(4643.09)" gradientUnits="userSpaceOnUse"><stop offset="0" stop-color="#f9b776"/><stop offset="1" stop-color="#f47960"/></linearGradient><linearGradient id="linear-gradient-5" x1="-3466.26" y1="3173.17" x2="-3384.92" y2="3173.17" xlink:href="#linear-gradient-2"/><linearGradient id="linear-gradient-6" x1="-3465.66" y1="3092.23" x2="-3346.28" y2="3092.23" xlink:href="#linear-gradient-3"/><linearGradient id="linear-gradient-7" x1="-3403.61" y1="2989.68" x2="-3332.16" y2="2989.68" xlink:href="#linear-gradient-4"/><linearGradient id="linear-gradient-8" x1="-2825.67" y1="2218.64" x2="-3435.7" y2="3217.92" gradientTransform="translate(4643.09)" gradientUnits="userSpaceOnUse"><stop offset="0" stop-color="#cb236d"/><stop offset="1" stop-color="#4c246d"/></linearGradient><linearGradient id="linear-gradient-9" x1="2107.39" y1="1257.21" x2="2026.63" y2="2509.1" gradientTransform="matrix(-1, 0, 0, 1, 3690.62, 0)" xlink:href="#linear-gradient-8"/><linearGradient id="linear-gradient-10" x1="1706.88" y1="1698.82" x2="1323.23" y2="1429.6" gradientTransform="matrix(-1, 0, 0, 1, 3690.62, 0)" xlink:href="#linear-gradient-4"/><linearGradient id="linear-gradient-11" x1="1221.87" y1="2812.42" x2="2241.65" y2="1479.64" gradientTransform="matrix(-1, 0, 0, 1, 3690.62, 0)" gradientUnits="userSpaceOnUse"><stop offset="0" stop-color="#a737d5"/><stop offset="1" stop-color="#ef497a"/></linearGradient><linearGradient id="linear-gradient-12" x1="1772.89" y1="2309.76" x2="2207.06" y2="209.61" xlink:href="#linear-gradient-11"/><linearGradient id="linear-gradient-13" x1="-3051.6" y1="1722.59" x2="-3020.64" y2="1560.06" xlink:href="#linear-gradient-4"/><linearGradient id="linear-gradient-14" x1="-2967.83" y1="1424.39" x2="-3144.47" y2="1559.55" xlink:href="#linear-gradient-4"/><linearGradient id="linear-gradient-15" x1="-3092.18" y1="1317.38" x2="-2927.67" y2="1529.19" xlink:href="#linear-gradient-3"/><linearGradient id="linear-gradient-16" x1="-2989.74" y1="1395.76" x2="-3166.38" y2="1530.92" xlink:href="#linear-gradient-4"/><linearGradient id="linear-gradient-17" x1="2329.94" y1="1410.79" x2="2074.18" y2="2231.92" gradientTransform="matrix(-1, 0, 0, 1, 3690.62, 0)" xlink:href="#linear-gradient-4"/><linearGradient id="linear-gradient-18" x1="616.12" y1="2149.98" x2="336.82" y2="2226.53" gradientTransform="matrix(-1, -0.05, -0.05, 1, 2261.82, -55.03)" xlink:href="#linear-gradient-3"/><linearGradient id="linear-gradient-19" x1="301.36" y1="1883.7" x2="104.34" y2="2091.93" gradientTransform="matrix(-1, 0, 0, 1, 2220.36, 0)" xlink:href="#linear-gradient-3"/><linearGradient id="linear-gradient-20" x1="181.89" y1="1935.75" x2="92.83" y2="2069.86" gradientTransform="matrix(-0.31, -0.95, -0.95, 0.31, 4014.23, 1505.76)" xlink:href="#linear-gradient-2"/><linearGradient id="linear-gradient-21" x1="2713.63" y1="942.4" x2="2511.71" y2="2079.86" gradientTransform="matrix(-1, 0, 0, 1, 3690.62, 0)" gradientUnits="userSpaceOnUse"><stop offset="0" stop-color="#fdf53f"/><stop offset="1" stop-color="#d93c65"/></linearGradient><linearGradient id="linear-gradient-22" x1="929.35" y1="1070.29" x2="722.94" y2="2039.49" gradientTransform="matrix(-0.99, -0.11, -0.11, 0.99, 3868.95, 101.66)" xlink:href="#linear-gradient-21"/><linearGradient id="linear-gradient-23" x1="852.19" y1="1350.21" x2="690.66" y2="2427.1" gradientTransform="matrix(-0.99, -0.11, -0.11, 0.99, 3869.09, 101.75)" xlink:href="#linear-gradient-21"/><linearGradient id="linear-gradient-24" x1="1057.85" y1="1904.25" x2="945.67" y2="2613.2" gradientTransform="matrix(-0.99, -0.11, -0.11, 0.99, 3936.31, 127.42)" xlink:href="#linear-gradient-21"/><linearGradient id="linear-gradient-25" x1="1059.6" y1="1874.27" x2="898.06" y2="2951.16" gradientTransform="matrix(-0.99, -0.11, -0.11, 0.99, 3936.6, 127.59)" xlink:href="#linear-gradient-21"/><linearGradient id="linear-gradient-26" x1="1175.89" y1="418.35" x2="947.05" y2="1605.17" gradientTransform="matrix(-0.99, -0.11, -0.11, 0.99, 3794.8, 126.43)" xlink:href="#linear-gradient-21"/><linearGradient id="linear-gradient-27" x1="1109.94" y1="696.24" x2="948.41" y2="1773.13" gradientTransform="matrix(-0.99, -0.11, -0.11, 0.99, 3794.87, 126.53)" xlink:href="#linear-gradient-21"/></defs><g id="Illustration"><path d="M2921.46,2851.33c-57,60-110.93,98.69-153.53,129.26-500.84,359.36-1093.47,254.61-1219.42,229-186-37.77-545.5-110.79-805.42-416.45-393.24-462.44-332-1191-27-1671.94,55.79-88,350.51-576.23,949.52-654.53,362.51-47.39,785.08,48.19,1091.1,304.57C3399.09,1309.44,3353.36,2396.63,2921.46,2851.33Z" transform="translate(-467.59 -455)" opacity="0.3" fill="url(#linear-gradient)"/><path d="M1761.93,3110.27c-36.36,3.14-99.47,8.25-149.22,10.44-29.9,1.31-47.12-1.62-57-5.59,0,1.12,0,2.18.1,3.16a10.29,10.29,0,0,0,9.77,9.72c94,5.25,168.77,1.81,195.39.19a7.32,7.32,0,0,0,6-11A58.66,58.66,0,0,0,1761.93,3110.27Z" transform="translate(-467.59 -455)" fill="url(#linear-gradient-2)"/><path d="M1612.71,3120.71c49.75-2.19,112.86-7.3,149.22-10.44-35.75-43.86-149.22-73.42-149.22-73.42h-32c-22.05,31.77-25.24,62-25,78.27C1565.59,3119.09,1582.81,3122,1612.71,3120.71Z" transform="translate(-467.59 -455)" fill="url(#linear-gradient-3)"/><path d="M1575.27,2984.53l3,59.34a13.54,13.54,0,0,0,11.57,12.75,52.73,52.73,0,0,0,24.07-2,16,16,0,0,0,10.78-12.33l10.36-57.77Z" transform="translate(-467.59 -455)" fill="url(#linear-gradient-4)"/><path d="M1203.32,3178.73c-15.77-2.84-22.9-13.43-25.89-24.75l-.06.31a28.2,28.2,0,0,0,13.81,30.19c13,7.12,27.2,8.33,38.23,7.74a35.35,35.35,0,0,0,28.67-17.09l.09-.15C1246.29,3182.57,1229.62,3183.47,1203.32,3178.73Z" transform="translate(-467.59 -455)" fill="url(#linear-gradient-5)"/><path d="M1277.67,3002.81h-26.43c-40.26-1.06-65.54,108.68-73.81,151.17,3,11.32,10.12,21.91,25.89,24.75,26.3,4.74,43,3.84,54.85-3.75,21.75-37,32.53-91.16,37.72-122.78C1301.78,3016.24,1277.67,3002.81,1277.67,3002.81Z" transform="translate(-467.59 -455)" fill="url(#linear-gradient-6)"/><path d="M1254.63,2947.73,1240,3006.1a15.83,15.83,0,0,0,8.24,18c8.21,4.22,19.77,8.64,30.39,7.36a13.23,13.23,0,0,0,10.8-8.82l21.54-61.41Z" transform="translate(-467.59 -455)" fill="url(#linear-gradient-7)"/><path d="M1770.88,2179s-131.15,819.78-129,824.28c0,0-36.22,16.47-75.7,2.1,0,0,11.86-438.23,39.64-606.26,0,0-223.82,391.69-294.9,586.87,0,0-37.07-4.42-67.75-24.62,0,0,241-705,305.29-798.93Z" transform="translate(-467.59 -455)" fill="url(#linear-gradient-8)"/><path d="M1611.07,2394.83a3.84,3.84,0,0,1-2-.58,3.88,3.88,0,0,1-1.23-5.34l49-78.28a3.88,3.88,0,0,1,2.52-1.75l36.06-7.26a3.88,3.88,0,0,1,1.54,7.6l-34.44,6.93L1614.36,2393A3.88,3.88,0,0,1,1611.07,2394.83Z" transform="translate(-467.59 -455)" fill="url(#linear-gradient-9)"/><path d="M2372.71,1376.24s-88.5,19.52-142.32,44.37a49.14,49.14,0,0,0-24.08,24.2c-16.1,35.26-64.26,123.69-157.66,165.89,13.45,17.85,35.11,55,44.54,117.41,56.1-41.76,104.53-111.49,127.78-225.85,0,0,17.71,9.63,39.8-1.1,11.67-5.67,25.14-13.71,35.26-20a46.25,46.25,0,0,0,20.5-27.53c3.85-15.1,1.58-28.38,1.58-42.63l45.49-14.09S2377.27,1391.72,2372.71,1376.24Z" transform="translate(-467.59 -455)" fill="url(#linear-gradient-10)"/><path d="M2093.19,1728.11c-9.43-62.42-31.09-99.56-44.54-117.41-58,26.21-133.51,34.6-229.62,1.29a102.12,102.12,0,0,0-27.47-5.42c-51.17-3-219.78-8.47-359.3,37.62a108.43,108.43,0,0,0-65.4,59.54c-37.74,86.61-98.85,283.86,70.78,383.44a421.12,421.12,0,0,1,40.94-77.47c-27.32-46.08-35.41-109,13.07-191,35.35,95.45,51.93,234.71,55.39,296.35a132.24,132.24,0,0,1-10.38,59.28l-.86,2a7,7,0,0,0,4.92,9.58c95.5,21.45,194.82,15.62,224.49,13.17a12.26,12.26,0,0,0,10.92-9.35c46.43-195.66,46.54-329.13,35.17-413.5C1854.74,1786,1987.57,1806.72,2093.19,1728.11Z" transform="translate(-467.59 -455)" fill="url(#linear-gradient-11)"/><path d="M1811.49,1781.56a3.88,3.88,0,0,1-3.84-3.37c-10.9-82.38-33.11-118.33-33.33-118.69a3.87,3.87,0,1,1,6.54-4.14c1,1.49,23.31,37.49,34.47,121.82a3.87,3.87,0,0,1-3.33,4.34A2.92,2.92,0,0,1,1811.49,1781.56Z" transform="translate(-467.59 -455)" fill="url(#linear-gradient-12)"/><path d="M1575.82,1492.59s-9.66,102.15-18.16,132.36a10.34,10.34,0,0,0,4.86,11.8c14.44,8.25,49.06,21.7,96.42-1.51a21.47,21.47,0,0,0,11.93-20.22l-4.17-98.71Z" transform="translate(-467.59 -455)" fill="url(#linear-gradient-13)"/><path d="M1668.78,1361.92s30.9,71,33,108.23,10.1,61.43-33,68.93-79.36-13.95-99-51.06c0,0-30.81-57.19-23.9-80.61S1668.78,1361.92,1668.78,1361.92Z" transform="translate(-467.59 -455)" fill="url(#linear-gradient-14)"/><path d="M1584.48,1461.33l2.45-1.08a5.91,5.91,0,0,0,2.89-8.12c-6.08-11.74-17.92-38.63-2.62-44.91,19.72-8.08,97.81-24,114.66-51.72,16.19-26.63,1.85-61-19.72-70.79a3,3,0,0,0-3.88,1.27l-1.8,3.4a2.93,2.93,0,0,1-5.4-.55,2.91,2.91,0,0,0-5.27-.76c-5.18,8.29-19.16,21.73-56.56,28.63-53.14,9.81-88.27,31.32-89.15,68a2.93,2.93,0,0,1-4.53,2.41c-3.92-2.39-10.2-3.51-18.59,3.55-14.6,12.27-8.63,44.1,23.37,70.29a2.91,2.91,0,0,1-.14,4.69c-5.8,3.77-14.45,12.76,8,24.73,23.17,12.39,40.48,11.37,47.14,10.27a2.9,2.9,0,0,0,2.36-3.51l-7.11-32.28a2.93,2.93,0,0,1,2.86-3.56Z" transform="translate(-467.59 -455)" fill="url(#linear-gradient-15)"/><path d="M1585.82,1468.14s-11.79-45.34-32.12-32.62,10.55,50.8,26.89,52.5Z" transform="translate(-467.59 -455)" fill="url(#linear-gradient-16)"/><path d="M2244.58,1491.71a3.86,3.86,0,0,1-3-6.31c3.34-4.12,33-40.43,44.48-46.89,4.16-2.35,6.65-4.78,7.17-7a5.64,5.64,0,0,0-.52-3.65l-34.89,7-19.77,17a3.87,3.87,0,0,1-5-5.88l20.53-17.63a3.91,3.91,0,0,1,1.76-.85l38.63-7.75a3.87,3.87,0,0,1,4,1.64c2.83,4.2,3.77,8.1,2.86,11.93-1.07,4.53-4.63,8.45-10.9,12-8.61,4.87-33.44,34.16-42.29,45A3.85,3.85,0,0,1,2244.58,1491.71Z" transform="translate(-467.59 -455)" fill="#f8a570"/><path d="M1584.32,2136.26,1720.9,2138l-47.81-45a35.66,35.66,0,0,0-43.73-4.1,103.06,103.06,0,0,0-24.28,21.64s-85.2-31.14-126.5-100.8a421.12,421.12,0,0,0-40.94,77.47C1474.67,2108.91,1522.66,2126,1584.32,2136.26Z" transform="translate(-467.59 -455)" fill="url(#linear-gradient-17)"/><path d="M1599,2153.87c.27,0,.53,0,.8,0l346.69-.37a15.36,15.36,0,1,0,0-30.71l-346.7.38a15.35,15.35,0,0,0-.76,30.68Z" transform="translate(-467.59 -455)" fill="url(#linear-gradient-18)"/><path d="M2258.18,1842.42H1969.45a55.09,55.09,0,0,0-49.77,31.23l-133.48,280H2145a33.45,33.45,0,0,0,31.1-20.93l103.51-259.14C2285.61,1858.65,2274.45,1842.42,2258.18,1842.42Z" transform="translate(-467.59 -455)" fill="url(#linear-gradient-19)"/><ellipse cx="2076.42" cy="1992.91" rx="36.62" ry="22.72" transform="translate(-933.91 2886.12) rotate(-71.76)" fill="url(#linear-gradient-20)"/><path d="M1249.78,1582.09c-38.81-12.22-102.48-40.16-132.69-97.4-6.63-12.56.55-28,14.31-31.42,68.18-17.09,251.33-81.18,234.48-273.74-20.67-236.14-285.62-251.88-454.66-204.92s-254.75,162.88-215.69,340.51c36.82,167.49,358.65,293,552.73,279.27C1255.23,1593.9,1256.44,1584.19,1249.78,1582.09Z" transform="translate(-467.59 -455)" fill="url(#linear-gradient-21)"/><path d="M1016.48,1462.88c6.42,0,10.16-.2,10.48-.22a6.73,6.73,0,0,0-.76-13.44,324.11,324.11,0,0,1-40.33-1.14,6.73,6.73,0,0,0-1.13,13.41C998.14,1462.62,1009.09,1462.88,1016.48,1462.88Z" transform="translate(-467.59 -455)" fill="#fff"/><path d="M907,1446.75a6.73,6.73,0,0,0,2-13.17C835.45,1411,787.9,1368,767.59,1305.8c-50.13-153.58,48.62-225.69,49.62-226.4a6.73,6.73,0,1,0-7.78-11c-1.12.8-27.68,19.9-47.77,59.41-18.42,36.25-34.57,97.28-6.87,182.15,21.45,65.71,73.38,112.9,150.19,136.48A6.73,6.73,0,0,0,907,1446.75Z" transform="translate(-467.59 -455)" fill="#fff"/><path d="M1113.23,1287.76l130.26-73v-22.17l-130.26-67.77v36.32l89,43.14-89,47.36Z" transform="translate(-467.59 -455)" fill="#fff"/><path d="M985,1106.88l67.31,213.65,34.89-1.17-68.21-215Z" transform="translate(-467.59 -455)" fill="#fff"/><path d="M960.66,1258.65l-81.31-36.9,81.31-51v-35.28l-117.22,79.48v20.54l117.22,58.3Z" transform="translate(-467.59 -455)" fill="#fff"/><ellipse cx="2880.23" cy="1628.87" rx="257.82" ry="256.47" transform="translate(-632.75 -120.18) rotate(-6.47)" fill="url(#linear-gradient-22)"/><ellipse cx="2880.23" cy="1628.87" rx="249.25" ry="247.94" transform="translate(-632.87 -119.9) rotate(-6.47)" fill="url(#linear-gradient-23)"/><path d="M2650.55,1646.05h.21a3.35,3.35,0,0,0,3.15-3.56A226.14,226.14,0,0,1,2654,1614a3.37,3.37,0,0,0-6.72-.44,230.24,230.24,0,0,0-.08,29.37A3.36,3.36,0,0,0,2650.55,1646.05Z" transform="translate(-467.59 -455)" fill="#fff"/><path d="M2664.41,1553.05a3.37,3.37,0,0,0,3.15-2.19c30-80.4,101.71-136.37,187.27-146.07a231.1,231.1,0,0,1,41.06-1,3.42,3.42,0,0,0,3.58-3.14,3.37,3.37,0,0,0-3.13-3.58,237.12,237.12,0,0,0-42.27,1c-88.09,10-162,67.62-192.82,150.4a3.37,3.37,0,0,0,2,4.33A3.28,3.28,0,0,0,2664.41,1553.05Z" transform="translate(-467.59 -455)" fill="#fff"/><path d="M2865.08,1630.54a21,21,0,0,0,21.34,21.34,22,22,0,0,0,21.3-22.09,21,21,0,0,0-21.22-21.32A22,22,0,0,0,2865.08,1630.54Z" transform="translate(-467.59 -455)" fill="#fff"/><path d="M2940,1761.37c11.89-.42,22.29-4,30.95-10.57,37.11-28.28,29.61-102.64-17.17-170.2-34.86-50.34-82.52-83.08-121.52-83.08-12.22,0-23,3.24-32,9.64-39.18,27.82-31.44,104.46,17.52,173.53C2853.6,1731.19,2901.61,1762.72,2940,1761.37Zm-107.77-250.18c34.25-.06,78.75,31.13,110.8,77.32,41.29,59.51,50.55,128.57,20.36,151.51-6.4,4.86-14.27,7.48-23.37,7.79-33.69,1.12-78.36-29-111.11-75.31-42.92-60.65-52.51-131.58-20.82-154.15C2814.77,1513.62,2822.9,1511.21,2832.26,1511.19Z" transform="translate(-467.59 -455)" fill="#fff"/><path d="M2831.61,1765.18h0c39.14-1.38,87.06-36,122.1-87.75,46.9-69.25,54.43-143.66,17.45-170.49-8.61-6.25-19-9.42-30.82-9.42-38.29,0-86.29,33-122.27,84.59-49.37,70.74-57.65,147.89-18.53,174.5C2808.55,1762.73,2819.34,1765.61,2831.61,1765.18ZM2940.33,1511c9.07,0,16.91,2.32,23.28,6.93,30.09,21.77,20.76,91-20.64,152-32.22,47.47-77,80.39-111.32,81.54-9.39.31-17.53-1.82-24.17-6.35-31.64-21.58-21.58-93,21.67-155.18C2862.07,1542.61,2906.74,1511.06,2940.33,1511Z" transform="translate(-467.59 -455)" fill="#fff"/><path d="M2883.52,1708.38h0l4,1.89c38.71-1.65,74.73-10.21,101.58-25.87,28-16.31,43.11-37,42.78-59.37-.63-44-62.57-77.7-142.49-77.16l-4,.18c-55,1.15-105.78,18.76-132,46-12.05,12.51-18.34,24.62-18.18,38.85C2735.74,1678.65,2801.58,1715.62,2883.52,1708.38Zm5.84-146.67c71.51-.61,129.12,28.2,129.64,64.24.24,17.14-12.53,34.08-36.09,47.77-25.06,14.57-58.95,23.45-95.56,25l-3.8.13c-73.13,1.94-134-26.88-134.44-64.26-.13-10.59,4.65-21,14.17-30.91,23.71-24.69,70.74-40.69,122.29-41.86Z" transform="translate(-467.59 -455)" fill="#fff"/><ellipse cx="2685.64" cy="2238.39" rx="257.82" ry="256.47" transform="translate(-702.59 -138.31) rotate(-6.47)" fill="url(#linear-gradient-24)"/><ellipse cx="2685.64" cy="2238.39" rx="249.25" ry="247.94" transform="matrix(0.99, -0.11, 0.11, 0.99, -702.86, -137.9)" fill="url(#linear-gradient-25)"/><path d="M2456,2255.57h.2a3.36,3.36,0,0,0,3.16-3.56,226.15,226.15,0,0,1,.08-28.52,3.37,3.37,0,0,0-3.13-3.58,3.41,3.41,0,0,0-3.58,3.14,232.09,232.09,0,0,0-.09,29.37A3.37,3.37,0,0,0,2456,2255.57Z" transform="translate(-467.59 -455)" fill="#fff"/><path d="M2469.82,2162.57a3.36,3.36,0,0,0,3.15-2.19c30-80.4,101.72-136.37,187.27-146.07a231.1,231.1,0,0,1,41.06-1,3.37,3.37,0,0,0,.45-6.72,236.19,236.19,0,0,0-42.27,1c-88.08,10-162,67.61-192.81,150.4a3.36,3.36,0,0,0,2,4.33A3.4,3.4,0,0,0,2469.82,2162.57Z" transform="translate(-467.59 -455)" fill="#fff"/><path d="M2687.9,2375.24c72.9-3,131.08-65.32,131.08-139s-58.18-133.61-131.08-133.52c-74.49.09-136.28,62.51-136.28,139.14S2613.41,2378.28,2687.9,2375.24Zm0-260.75c66.64-.19,119.92,54.52,119.92,122s-53.28,124.38-119.92,127c-68,2.66-124.26-52-124.26-121.86S2619.93,2114.69,2687.9,2114.49Z" transform="translate(-467.59 -455)" fill="#f4f7fa"/><path d="M2620.18,2240.39c0,38.13,30.48,68.11,67.72,67,36.83-1.14,66.4-32.38,66.4-69.78s-29.57-67.4-66.4-67C2650.66,2171,2620.18,2202.25,2620.18,2240.39Z" transform="translate(-467.59 -455)" fill="#f4f7fa"/><path d="M2595,2123.74a29,29,0,0,0,29.11,29.17,29.3,29.3,0,1,0-29.11-29.17Z" transform="translate(-467.59 -455)" fill="#f4f7fa"/><ellipse cx="2623.99" cy="984.99" rx="257.82" ry="256.47" transform="translate(-561.86 -153.12) rotate(-6.47)" fill="url(#linear-gradient-26)"/><ellipse cx="2623.99" cy="984.99" rx="249.25" ry="247.94" transform="translate(-561.91 -152.9) rotate(-6.47)" fill="url(#linear-gradient-27)"/><path d="M2394.31,1002.17h.21a3.38,3.38,0,0,0,3.16-3.57,224.12,224.12,0,0,1,.08-28.51,3.36,3.36,0,1,0-6.71-.45A232.09,232.09,0,0,0,2391,999,3.37,3.37,0,0,0,2394.31,1002.17Z" transform="translate(-467.59 -455)" fill="#fff"/><path d="M2408.17,909.17a3.37,3.37,0,0,0,3.15-2.19c30-80.4,101.72-136.37,187.27-146.07a231.1,231.1,0,0,1,41.06-1,3.41,3.41,0,0,0,3.58-3.13,3.35,3.35,0,0,0-3.13-3.58,236.19,236.19,0,0,0-42.27,1c-88.08,10-162,67.61-192.81,150.39a3.37,3.37,0,0,0,3.15,4.55Z" transform="translate(-467.59 -455)" fill="#fff"/><polygon points="2023.34 453.59 2023.34 617.94 2164.25 681.68 2164.98 680.55 2279.81 597.87 2278.81 462.38 2162.95 385.6 2163.13 384.56 2023.34 453.59" fill="#fff"/><polygon points="2162.87 385.54 2164 680.67 2279.7 597.87 2278.76 462.38 2162.87 385.54" fill="#f4f7fa"/></g></svg>