<svg width="575" height="569" viewBox="0 0 575 569" fill="none" xmlns="http://www.w3.org/2000/svg">
<path d="M504.606 487.238C492.886 499.427 481.796 507.288 473.034 513.498C370.038 586.5 248.177 565.22 222.276 560.024C184.031 552.349 110.101 537.516 56.6525 475.422C-24.2123 381.482 -11.6201 233.474 51.1031 135.774C62.5766 117.902 123.181 18.7148 246.36 2.80896C320.906 -6.81768 407.804 12.5972 470.733 64.6798C602.826 174.007 593.421 394.867 504.606 487.238Z" fill="url(#paint0_linear_472_1036)"/>
<path d="M242.069 395.235L229.793 505.323H372.204L353.655 395.235H242.069Z" fill="url(#paint1_linear_472_1036)"/>
<path d="M2.83985 124.004V376.126C2.83985 396.865 19.3673 413.828 40.1015 414.362C132.191 416.737 454.276 422.494 541.944 421.203C549.196 421.092 556.125 418.186 561.286 413.091C566.447 407.996 569.442 401.105 569.646 393.855C571.337 335.282 574.086 194.433 563.923 129.044C562.887 122.372 559.553 116.271 554.497 111.796C549.44 107.322 542.98 104.754 536.231 104.538C459.071 102.069 117.64 94.2381 30.0185 96.2003C22.7531 96.3628 15.8401 99.3638 10.7601 104.561C5.68016 109.757 2.8371 116.737 2.83985 124.004Z" fill="url(#paint2_linear_472_1036)"/>
<path d="M18.6621 122.777V362.315C18.6624 368.135 20.9519 373.721 25.0361 377.866C29.1203 382.012 34.6714 384.385 40.4903 384.472L529.328 390.51C532.181 390.552 535.014 390.028 537.662 388.969C540.311 387.909 542.723 386.334 544.759 384.336C546.795 382.337 548.414 379.955 549.523 377.326C550.632 374.698 551.208 371.875 551.219 369.022L552.036 131.622C552.051 127.495 550.449 123.527 547.572 120.568C544.694 117.609 540.772 115.896 536.646 115.796L36.168 105.692C33.8894 105.637 31.6227 106.037 29.5014 106.871C27.38 107.705 25.4469 108.954 23.8157 110.546C22.1845 112.138 20.8882 114.041 20.0032 116.141C19.1181 118.241 18.6621 120.498 18.6621 122.777Z" fill="#91B3FA"/>
<path opacity="0.65" d="M554.898 400.34H554.887L18.6513 391.204C18.5609 391.202 18.4717 391.183 18.3887 391.147C18.3057 391.111 18.2307 391.059 18.1678 390.994C18.105 390.929 18.0556 390.853 18.0224 390.769C17.9893 390.684 17.9731 390.595 17.9747 390.504C17.9833 390.324 18.0602 390.154 18.1898 390.028C18.3195 389.902 18.4921 389.831 18.6726 389.828L554.911 398.964C555.087 398.975 555.253 399.052 555.373 399.182C555.494 399.311 555.56 399.481 555.559 399.658C555.557 399.835 555.488 400.004 555.365 400.131C555.242 400.258 555.075 400.333 554.898 400.34Z" fill="white"/>
<path opacity="0.65" d="M292.071 411.5C290.831 411.5 289.619 411.133 288.588 410.444C287.557 409.756 286.753 408.777 286.278 407.631C285.804 406.486 285.679 405.225 285.921 404.009C286.163 402.793 286.76 401.676 287.636 400.799C288.513 399.922 289.63 399.325 290.846 399.083C292.062 398.841 293.322 398.965 294.468 399.44C295.613 399.914 296.593 400.717 297.281 401.748C297.97 402.779 298.338 403.991 298.338 405.231C298.337 406.893 297.676 408.486 296.501 409.661C295.326 410.837 293.733 411.498 292.071 411.5ZM292.071 400.341C291.103 400.341 290.158 400.628 289.353 401.165C288.548 401.703 287.921 402.467 287.551 403.361C287.181 404.255 287.084 405.239 287.273 406.188C287.462 407.137 287.928 408.009 288.612 408.693C289.297 409.377 290.169 409.843 291.118 410.031C292.067 410.22 293.051 410.123 293.945 409.752C294.839 409.382 295.602 408.754 296.14 407.95C296.677 407.145 296.964 406.199 296.964 405.231C296.962 403.934 296.446 402.691 295.529 401.774C294.612 400.857 293.368 400.342 292.071 400.341Z" fill="white"/>
<path d="M402.878 527.847H194.45C188.789 527.847 184.536 523.816 185.632 519.485L188.306 508.908C189.111 505.728 192.609 503.392 196.766 503.263L397.698 496.992C402.04 496.857 405.885 499.162 406.831 502.467L411.653 519.314C412.905 523.695 408.632 527.847 402.878 527.847Z" fill="#4E004F"/>
<path d="M306.654 506.136C306.477 506.128 306.31 506.053 306.188 505.926C306.065 505.799 305.996 505.63 305.994 505.453C305.993 505.276 306.059 505.106 306.18 504.977C306.301 504.847 306.467 504.77 306.643 504.76L315.252 504.635H315.263C315.445 504.634 315.621 504.705 315.751 504.833C315.88 504.961 315.954 505.135 315.956 505.317C315.957 505.499 315.886 505.675 315.758 505.805C315.63 505.935 315.456 506.008 315.274 506.01L306.663 506.136H306.654Z" fill="white"/>
<path d="M193.345 522.022C193.309 522.026 193.273 522.026 193.237 522.022C193.147 522.008 193.062 521.977 192.985 521.93C192.908 521.882 192.841 521.821 192.788 521.747C192.734 521.674 192.696 521.592 192.675 521.504C192.654 521.416 192.651 521.325 192.665 521.236L193.894 513.543C194.21 511.542 195.224 509.717 196.756 508.391C198.288 507.065 200.239 506.323 202.265 506.296L293.589 504.96H293.6C293.782 504.959 293.957 505.03 294.087 505.158C294.217 505.286 294.291 505.46 294.292 505.642C294.294 505.825 294.223 506 294.095 506.13C293.967 506.26 293.793 506.333 293.61 506.335L202.284 507.67C200.582 507.693 198.943 508.316 197.656 509.431C196.369 510.545 195.518 512.078 195.252 513.759L194.023 521.452C193.996 521.612 193.913 521.757 193.789 521.862C193.664 521.966 193.507 522.023 193.345 522.022Z" fill="white"/>
<path d="M454.557 20.6931C457.674 20.8405 460.819 21.1264 463.903 21.5419C464.665 21.6439 465.435 21.4393 466.046 20.9731C466.657 20.5069 467.058 19.8173 467.16 19.0558C467.211 18.6786 467.187 18.2951 467.089 17.9272C466.992 17.5593 466.823 17.2142 466.592 16.9116C466.361 16.609 466.073 16.3548 465.744 16.1636C465.415 15.9724 465.051 15.8479 464.674 15.7972C461.426 15.3621 458.114 15.062 454.831 14.9093C454.063 14.873 453.313 15.1431 452.744 15.6602C452.176 16.1772 451.836 16.8988 451.8 17.6662C451.764 18.4337 452.034 19.1841 452.551 19.7524C453.068 20.3207 453.79 20.6604 454.557 20.6966V20.6931Z" fill="url(#paint3_linear_472_1036)"/>
<path d="M373.388 46.9768C373.125 46.7019 372.81 46.4815 372.462 46.3284C372.113 46.1752 371.738 46.0922 371.357 46.0841C370.977 46.0761 370.598 46.1431 370.243 46.2813C369.889 46.4195 369.565 46.6263 369.29 46.8898C366.923 49.1592 364.623 51.5601 362.457 54.0214C362.205 54.3072 362.013 54.6397 361.89 54.9999C361.767 55.3602 361.716 55.7411 361.74 56.1209C361.765 56.5008 361.864 56.8721 362.031 57.2137C362.199 57.5553 362.433 57.8606 362.718 58.112C363.004 58.3633 363.337 58.556 363.697 58.6789C364.057 58.8018 364.438 58.8525 364.818 58.8282C365.198 58.8038 365.569 58.705 365.911 58.5371C366.252 58.3693 366.558 58.1358 366.809 57.85C368.867 55.5095 371.051 53.2329 373.301 51.0718C373.856 50.5403 374.177 49.8102 374.193 49.0423C374.209 48.2743 373.92 47.5314 373.388 46.9768Z" fill="url(#paint4_linear_472_1036)"/>
<path d="M337.86 112.454C337.483 112.403 337.099 112.427 336.731 112.525C336.363 112.622 336.017 112.791 335.714 113.022C335.411 113.253 335.157 113.541 334.965 113.87C334.774 114.199 334.649 114.563 334.598 114.94C334.156 118.194 333.851 121.511 333.689 124.778C333.651 125.546 333.92 126.297 334.436 126.867C334.953 127.436 335.674 127.777 336.442 127.815C336.772 127.833 337.103 127.792 337.42 127.696C337.993 127.524 338.498 127.178 338.866 126.707C339.234 126.235 339.448 125.662 339.476 125.064C339.631 121.953 339.92 118.81 340.341 115.722C340.393 115.344 340.37 114.96 340.274 114.592C340.177 114.223 340.009 113.877 339.778 113.574C339.548 113.27 339.26 113.015 338.931 112.823C338.602 112.631 338.238 112.506 337.86 112.454Z" fill="url(#paint5_linear_472_1036)"/>
<path d="M356.73 65.946C356.412 65.7366 356.056 65.5918 355.683 65.52C355.309 65.4481 354.925 65.4506 354.552 65.5273C354.179 65.604 353.826 65.7534 353.511 65.9669C353.196 66.1804 352.926 66.4539 352.717 66.7718C350.907 69.5136 349.197 72.362 347.631 75.2388C347.285 75.9118 347.216 76.6933 347.439 77.4163C347.662 78.1394 348.159 78.7466 348.823 79.1083C349.488 79.47 350.267 79.5575 350.995 79.3521C351.724 79.1467 352.343 78.6647 352.72 78.0091C354.208 75.2761 355.835 72.568 357.554 69.9611C357.977 69.3193 358.127 68.5359 357.973 67.7831C357.818 67.0302 357.371 66.3695 356.73 65.946Z" fill="url(#paint6_linear_472_1036)"/>
<path d="M430.016 22.2984C433.089 21.7497 436.219 21.3253 439.322 21.0376C439.708 21.0124 440.085 20.91 440.431 20.7366C440.778 20.5631 441.085 20.322 441.337 20.0276C441.588 19.7332 441.778 19.3914 441.895 19.0224C442.012 18.6534 442.054 18.2647 442.019 17.8792C441.983 17.4937 441.871 17.1192 441.688 16.7779C441.505 16.4366 441.256 16.1354 440.955 15.892C440.654 15.6486 440.307 15.468 439.935 15.3608C439.563 15.2536 439.173 15.2221 438.789 15.268C435.527 15.5699 432.233 16.0174 429.001 16.5946C428.626 16.6615 428.269 16.8015 427.948 17.0067C427.628 17.2118 427.351 17.4781 427.133 17.7903C426.916 18.1024 426.762 18.4543 426.681 18.826C426.599 19.1976 426.592 19.5816 426.658 19.9562C426.725 20.3307 426.865 20.6884 427.071 21.0088C427.276 21.3292 427.542 21.606 427.854 21.8235C428.166 22.041 428.518 22.1949 428.89 22.2764C429.262 22.3579 429.646 22.3654 430.02 22.2984H430.016Z" fill="url(#paint7_linear_472_1036)"/>
<path d="M344.688 88.1381C343.969 87.8694 343.174 87.8963 342.475 88.2128C341.776 88.5292 341.231 89.1096 340.959 89.8269C339.803 92.8973 338.766 96.0564 337.874 99.2156C337.684 99.9495 337.788 100.729 338.166 101.386C338.543 102.044 339.164 102.527 339.893 102.733C340.623 102.939 341.405 102.85 342.07 102.486C342.735 102.122 343.231 101.513 343.452 100.787C344.297 97.786 345.283 94.7867 346.382 91.8708C346.516 91.5145 346.579 91.1353 346.566 90.7547C346.554 90.3742 346.466 89.9999 346.309 89.6532C346.152 89.3065 345.927 88.9943 345.649 88.7343C345.371 88.4743 345.044 88.2717 344.688 88.1381Z" fill="url(#paint8_linear_472_1036)"/>
<path d="M336.643 137.669C336.264 137.703 335.895 137.812 335.558 137.988C335.221 138.165 334.923 138.406 334.679 138.698C334.435 138.991 334.252 139.328 334.139 139.691C334.026 140.055 333.985 140.437 334.02 140.816C334.313 144.074 334.753 147.367 335.327 150.604C335.461 151.36 335.89 152.033 336.52 152.473C337.15 152.913 337.928 153.085 338.685 152.951C338.803 152.93 338.915 152.904 339.021 152.872C339.699 152.666 340.278 152.219 340.649 151.615C341.02 151.011 341.156 150.291 341.033 149.593C340.487 146.518 340.07 143.391 339.789 140.294C339.72 139.528 339.35 138.822 338.759 138.33C338.169 137.838 337.408 137.6 336.643 137.669Z" fill="url(#paint9_linear_472_1036)"/>
<path d="M384.142 41.7418C384.451 41.6494 384.741 41.5059 385.002 41.3173C387.527 39.4954 390.162 37.7657 392.835 36.1675C393.472 35.7623 393.925 35.1247 394.099 34.3902C394.273 33.6557 394.154 32.8823 393.766 32.2345C393.379 31.5868 392.754 31.1158 392.024 30.9217C391.295 30.7276 390.519 30.8257 389.861 31.1953C387.046 32.8787 384.27 34.706 381.612 36.6257C381.061 37.0282 380.669 37.6124 380.507 38.2752C380.345 38.9381 380.421 39.637 380.724 40.2487C381.027 40.8604 381.535 41.3456 382.161 41.6188C382.786 41.892 383.488 41.9355 384.142 41.7418Z" fill="url(#paint10_linear_472_1036)"/>
<path d="M406.134 29.3857C406.234 29.3568 406.331 29.3219 406.427 29.2809C409.295 28.0716 412.253 26.9723 415.221 26.0045C415.946 25.769 416.55 25.2568 416.9 24.5791C417.25 23.9013 417.318 23.1128 417.091 22.3848C416.863 21.6568 416.357 21.048 415.683 20.6907C415.009 20.3334 414.221 20.2564 413.491 20.4765L413.431 20.4942C410.307 21.5082 407.194 22.6678 404.175 23.941C403.499 24.2335 402.96 24.7725 402.667 25.4483C402.374 26.1242 402.349 26.8863 402.598 27.5796C402.847 28.273 403.35 28.8456 404.006 29.1811C404.662 29.5165 405.421 29.5897 406.129 29.3857H406.134Z" fill="url(#paint11_linear_472_1036)"/>
<path d="M344.697 164.354C344.464 163.627 343.958 163.02 343.285 162.661C342.612 162.302 341.825 162.219 341.092 162.431L341.037 162.447C339.506 162.908 338.691 164.61 339.181 166.133C340.192 169.264 341.373 172.469 342.639 175.486C342.916 176.143 343.428 176.673 344.074 176.974C344.721 177.275 345.456 177.325 346.137 177.115C346.23 177.07 346.321 177.02 346.409 176.966C346.76 176.82 347.078 176.606 347.347 176.337C347.615 176.067 347.827 175.748 347.971 175.396C348.116 175.045 348.189 174.668 348.188 174.288C348.186 173.908 348.11 173.532 347.963 173.181C346.76 170.31 345.656 167.328 344.697 164.354Z" fill="url(#paint12_linear_472_1036)"/>
<path d="M486.883 24.0884C487.002 23.7263 487.047 23.3444 487.018 22.9645C486.988 22.5847 486.884 22.2143 486.712 21.8747C486.539 21.5351 486.301 21.2329 486.011 20.9853C485.722 20.7378 485.386 20.5498 485.024 20.4321C483.529 19.9455 482.005 19.482 480.478 19.054C480.112 18.9511 479.729 18.9213 479.351 18.9663C478.973 19.0113 478.608 19.1303 478.276 19.3165C477.944 19.5027 477.653 19.7524 477.417 20.0513C477.182 20.3503 477.008 20.6927 476.905 21.0589C476.802 21.4252 476.772 21.8081 476.817 22.1859C476.862 22.5636 476.981 22.9288 477.167 23.2606C477.354 23.5924 477.603 23.8842 477.902 24.1195C478.201 24.3548 478.544 24.5289 478.91 24.6318C480.357 25.0403 481.812 25.4789 483.23 25.9424C483.592 26.0602 483.974 26.1055 484.353 26.0758C484.733 26.0461 485.103 25.942 485.442 25.7693C485.781 25.5967 486.083 25.3589 486.33 25.0696C486.578 24.7803 486.765 24.4451 486.883 24.0831V24.0884Z" fill="url(#paint13_linear_472_1036)"/>
<path d="M438.544 239.955C435.494 239.657 432.416 239.222 429.403 238.668C428.647 238.528 427.867 238.695 427.235 239.13C426.602 239.566 426.168 240.235 426.029 240.991C425.889 241.746 426.056 242.526 426.491 243.159C426.927 243.791 427.596 244.225 428.351 244.365C431.526 244.951 434.766 245.407 437.98 245.723C438.362 245.767 438.749 245.734 439.119 245.627C439.488 245.52 439.833 245.34 440.132 245.099C440.431 244.857 440.679 244.558 440.862 244.219C441.045 243.881 441.158 243.509 441.195 243.126C441.233 242.743 441.194 242.357 441.08 241.989C440.967 241.622 440.781 241.28 440.535 240.985C440.288 240.69 439.985 240.447 439.643 240.27C439.301 240.093 438.928 239.986 438.544 239.955Z" fill="url(#paint14_linear_472_1036)"/>
<path d="M558.089 87.5077C558.39 88.1268 558.901 88.6186 559.532 88.8952C560.162 89.1717 560.87 89.215 561.529 89.0172C561.678 88.9698 561.822 88.9105 561.961 88.8396C562.303 88.6737 562.609 88.4419 562.862 88.1575C563.115 87.8731 563.309 87.5417 563.434 87.1821C563.559 86.8226 563.611 86.4421 563.589 86.0622C563.566 85.6824 563.469 85.3107 563.303 84.9683C562.616 83.5477 561.882 82.1271 561.14 80.7348C560.962 80.3957 560.719 80.0952 560.424 79.8506C560.129 79.6061 559.789 79.4225 559.423 79.3103C559.056 79.1981 558.672 79.1597 558.291 79.1971C557.909 79.2346 557.539 79.3472 557.202 79.5285C556.865 79.7098 556.567 79.9562 556.325 80.2534C556.083 80.5506 555.903 80.8927 555.795 81.26C555.686 81.6273 555.651 82.0125 555.693 82.3933C555.734 82.774 555.85 83.1429 556.035 83.4784C556.747 84.8103 557.438 86.1635 558.089 87.5077Z" fill="url(#paint15_linear_472_1036)"/>
<path d="M571.247 121.948C570.483 122.023 569.78 122.399 569.292 122.992C568.804 123.585 568.571 124.348 568.644 125.112C568.942 128.167 569.111 131.267 569.15 134.329C569.147 134.714 569.221 135.097 569.367 135.454C569.513 135.811 569.73 136.135 570.003 136.407C570.276 136.679 570.601 136.894 570.959 137.039C571.316 137.184 571.699 137.257 572.085 137.252C572.47 137.247 572.851 137.165 573.205 137.011C573.559 136.857 573.878 136.634 574.145 136.355C574.411 136.076 574.619 135.747 574.756 135.386C574.894 135.026 574.958 134.641 574.945 134.256C574.904 131.031 574.724 127.767 574.412 124.551C574.337 123.786 573.962 123.082 573.369 122.594C572.775 122.106 572.012 121.873 571.247 121.948Z" fill="url(#paint16_linear_472_1036)"/>
<path d="M571.55 146.798C571.173 146.751 570.79 146.778 570.423 146.879C570.056 146.979 569.713 147.151 569.412 147.384C569.112 147.618 568.86 147.908 568.672 148.239C568.484 148.569 568.362 148.934 568.315 149.311C567.933 152.351 567.415 155.414 566.775 158.417C566.631 159.163 566.786 159.935 567.205 160.568C567.624 161.2 568.275 161.643 569.018 161.801C569.76 161.959 570.535 161.82 571.176 161.412C571.816 161.005 572.272 160.363 572.444 159.623C573.117 156.462 573.662 153.23 574.063 150.034C574.111 149.656 574.084 149.273 573.983 148.906C573.883 148.539 573.711 148.196 573.478 147.895C573.244 147.595 572.954 147.343 572.623 147.155C572.292 146.967 571.928 146.845 571.55 146.798Z" fill="url(#paint17_linear_472_1036)"/>
<path d="M551.987 194.567C550.345 197.155 548.569 199.705 546.713 202.148C546.483 202.451 546.315 202.797 546.218 203.165C546.121 203.533 546.098 203.917 546.15 204.294C546.201 204.671 546.327 205.034 546.519 205.363C546.711 205.692 546.966 205.979 547.269 206.21C547.572 206.44 547.918 206.608 548.286 206.705C548.654 206.801 549.037 206.824 549.415 206.773C549.792 206.721 550.155 206.596 550.484 206.404C550.812 206.212 551.1 205.957 551.33 205.654C553.284 203.082 555.152 200.397 556.881 197.677C557.093 197.356 557.239 196.996 557.311 196.617C557.382 196.239 557.377 195.851 557.297 195.475C557.217 195.098 557.062 194.742 556.843 194.426C556.623 194.11 556.343 193.841 556.018 193.634C555.693 193.428 555.33 193.288 554.951 193.223C554.572 193.158 554.183 193.17 553.809 193.257C553.434 193.343 553.08 193.504 552.768 193.729C552.456 193.954 552.192 194.239 551.991 194.567H551.987Z" fill="url(#paint18_linear_472_1036)"/>
<path d="M517.975 228.544C515.379 230.185 512.686 231.74 509.969 233.141C509.287 233.495 508.772 234.105 508.539 234.837C508.306 235.57 508.373 236.365 508.726 237.048C509.08 237.731 509.69 238.246 510.422 238.479C511.155 238.712 511.95 238.644 512.633 238.291C515.494 236.807 518.33 235.178 521.063 233.45C521.697 233.033 522.143 232.383 522.303 231.641C522.464 230.899 522.326 230.123 521.921 229.481C521.515 228.839 520.874 228.382 520.134 228.208C519.395 228.034 518.617 228.157 517.968 228.551L517.975 228.544Z" fill="url(#paint19_linear_472_1036)"/>
<path d="M536.855 213.444C534.681 215.614 532.394 217.706 530.057 219.688C529.752 219.928 529.499 220.228 529.312 220.568C529.126 220.908 529.009 221.282 528.97 221.668C528.931 222.054 528.969 222.444 529.084 222.815C529.198 223.186 529.386 223.53 529.636 223.827C529.886 224.124 530.193 224.367 530.539 224.543C530.885 224.719 531.262 224.824 531.65 224.851C532.037 224.878 532.425 224.827 532.792 224.701C533.159 224.575 533.497 224.376 533.786 224.117C536.249 222.039 538.655 219.828 540.942 217.546C541.212 217.277 541.425 216.958 541.571 216.607C541.717 216.255 541.792 215.879 541.792 215.498C541.792 215.118 541.717 214.741 541.572 214.39C541.426 214.038 541.213 213.719 540.944 213.45C540.675 213.18 540.356 212.967 540.005 212.821C539.653 212.675 539.277 212.6 538.896 212.6C538.516 212.6 538.139 212.675 537.788 212.82C537.436 212.966 537.117 213.179 536.847 213.448L536.855 213.444Z" fill="url(#paint20_linear_472_1036)"/>
<path d="M566.365 171.1C565.642 170.839 564.845 170.876 564.149 171.202C563.454 171.529 562.916 172.118 562.655 172.84C561.614 175.723 560.437 178.598 559.157 181.389C558.854 182.085 558.836 182.871 559.107 183.58C559.378 184.289 559.916 184.863 560.605 185.179C561.295 185.496 562.081 185.529 562.795 185.272C563.509 185.016 564.094 184.489 564.424 183.806C565.771 180.869 567.009 177.841 568.105 174.81C568.366 174.087 568.329 173.29 568.003 172.595C567.676 171.899 567.087 171.361 566.365 171.1Z" fill="url(#paint21_linear_472_1036)"/>
<path d="M472.663 244.716C469.614 245.095 466.517 245.348 463.455 245.471C462.688 245.502 461.963 245.836 461.442 246.4C460.921 246.965 460.646 247.713 460.676 248.481C460.707 249.249 461.041 249.973 461.606 250.494C462.17 251.015 462.918 251.291 463.686 251.26C466.907 251.132 470.17 250.866 473.377 250.466C473.54 250.446 473.702 250.412 473.86 250.365C474.553 250.154 475.142 249.69 475.511 249.066C475.879 248.441 476 247.701 475.85 246.992C475.699 246.283 475.289 245.656 474.699 245.235C474.109 244.813 473.382 244.628 472.663 244.716Z" fill="url(#paint22_linear_472_1036)"/>
<path d="M496.218 239.126C493.349 240.149 490.39 241.063 487.393 241.859C486.665 242.07 486.049 242.557 485.676 243.216C485.304 243.875 485.203 244.654 485.398 245.386C485.592 246.118 486.065 246.745 486.716 247.132C487.366 247.52 488.143 247.637 488.879 247.46C490.181 247.115 491.469 246.751 492.743 246.366C494.563 245.817 496.387 245.219 498.163 244.59C498.529 244.469 498.868 244.275 499.158 244.021C499.449 243.767 499.686 243.458 499.855 243.111C500.024 242.764 500.123 242.387 500.144 242.001C500.166 241.616 500.11 241.23 499.981 240.867C499.851 240.503 499.651 240.169 499.39 239.884C499.13 239.599 498.815 239.369 498.465 239.207C498.114 239.046 497.735 238.956 497.349 238.943C496.963 238.93 496.579 238.994 496.218 239.131V239.126Z" fill="url(#paint23_linear_472_1036)"/>
<path d="M569.208 99.6329C569.094 99.2685 568.908 98.9306 568.662 98.639C568.415 98.3475 568.113 98.1081 567.773 97.935C567.432 97.762 567.061 97.6587 566.68 97.6313C566.299 97.6039 565.917 97.6529 565.555 97.7754C565.193 97.8929 564.858 98.0806 564.569 98.3278C564.28 98.575 564.042 98.8767 563.869 99.2158C563.697 99.5549 563.593 99.9247 563.563 100.304C563.534 100.683 563.579 101.065 563.698 101.426C563.947 102.199 564.191 102.976 564.429 103.756C565.079 105.916 565.672 108.123 566.193 110.327C566.369 111.075 566.836 111.722 567.49 112.126C568.143 112.529 568.931 112.657 569.678 112.481C569.735 112.467 569.794 112.451 569.856 112.433C570.562 112.22 571.16 111.745 571.528 111.106C571.896 110.468 572.006 109.712 571.836 108.995C571.291 106.686 570.666 104.358 569.982 102.089C569.73 101.259 569.472 100.44 569.208 99.6329Z" fill="url(#paint24_linear_472_1036)"/>
<path d="M414.803 234.919C413.382 234.45 411.961 233.942 410.541 233.411C410.183 233.267 409.799 233.195 409.413 233.2C409.027 233.206 408.646 233.289 408.292 233.444C407.938 233.599 407.619 233.823 407.353 234.103C407.087 234.383 406.88 234.714 406.743 235.075C406.607 235.437 406.544 235.822 406.559 236.208C406.573 236.594 406.665 236.973 406.828 237.323C406.991 237.673 407.223 237.987 407.509 238.246C407.795 238.506 408.131 238.705 408.495 238.833C409.978 239.392 411.484 239.927 412.974 240.419C413.704 240.66 414.5 240.602 415.186 240.256C415.873 239.911 416.395 239.306 416.636 238.576C416.878 237.846 416.819 237.05 416.474 236.363C416.128 235.677 415.524 235.155 414.794 234.914L414.803 234.919Z" fill="url(#paint25_linear_472_1036)"/>
<path d="M468.517 147.612C465.181 149.172 461.394 149.473 457.854 148.458C454.314 147.443 451.261 145.182 449.258 142.091L445.529 144.864C447.725 148.158 450.856 150.72 454.519 152.22C458.182 153.721 462.21 154.092 466.086 153.286C469.961 152.479 473.507 150.533 476.268 147.696C479.028 144.859 480.878 141.261 481.578 137.365L476.874 137.198C476.365 139.455 475.348 141.567 473.899 143.371C472.451 145.176 470.61 146.626 468.517 147.612Z" fill="url(#paint26_linear_472_1036)"/>
<path d="M509.001 119.249C505.898 108.948 499.455 99.9738 490.689 93.7391L489.105 95.4563C497.574 101.4 503.801 110.017 506.787 119.923C507.248 121.453 507.631 123.004 507.936 124.572C509.634 133.248 508.811 142.229 505.563 150.451C499.921 164.764 487.319 175.998 471.129 179.143C467.877 179.776 464.567 180.063 461.255 179.997C460.948 179.991 460.651 180.107 460.429 180.32C460.208 180.533 460.079 180.825 460.072 181.132C460.071 181.252 460.087 181.372 460.12 181.487C460.192 181.721 460.335 181.927 460.53 182.074C460.725 182.222 460.962 182.304 461.207 182.309C461.403 182.309 461.6 182.208 461.795 182.208C461.896 182.208 461.997 182.101 462.097 182.101H462.203C464.805 182.101 467.419 182 470.003 181.583C470.535 181.498 471.05 181.46 471.571 181.359C473.214 181.048 474.841 180.654 476.445 180.18C488.013 176.67 497.869 168.996 504.106 158.64C510.343 148.285 512.519 135.984 510.212 124.118C509.89 122.475 509.486 120.85 509.001 119.249Z" fill="url(#paint27_linear_472_1036)"/>
<path d="M544.215 106.472L527.906 104.174C524.827 97.3293 520.692 91.0104 515.653 85.4479L494.603 89.4932L478.514 106.937L492.721 137.689L456.775 136.486L435.765 152.131L438.617 179.736L416.519 175.46L408.999 182.918L404.753 198.789C404.68 199.061 404.694 199.349 404.793 199.613C404.892 199.877 405.071 200.103 405.305 200.261L421.694 211.315C421.927 211.473 422.204 211.554 422.486 211.546C422.768 211.539 423.04 211.444 423.265 211.274L436.433 201.362C443.727 204.137 451.425 205.705 459.224 206.004L467.465 220.263C467.606 220.507 467.82 220.701 468.077 220.818C468.333 220.935 468.62 220.969 468.896 220.915L488.302 217.143C488.579 217.09 488.832 216.951 489.026 216.747C489.221 216.542 489.346 216.282 489.386 216.003L491.685 199.693C498.805 196.494 505.355 192.156 511.077 186.848L526.999 191.11C527.271 191.182 527.559 191.168 527.823 191.07C528.087 190.971 528.313 190.793 528.471 190.56L539.526 174.169C539.683 173.935 539.764 173.658 539.757 173.377C539.749 173.095 539.654 172.822 539.485 172.597L529.572 159.432C532.349 152.137 533.918 144.438 534.218 136.639L548.477 128.398C548.721 128.256 548.915 128.043 549.032 127.786C549.149 127.53 549.183 127.243 549.129 126.966L545.357 107.56C545.304 107.282 545.166 107.028 544.961 106.833C544.756 106.638 544.495 106.511 544.215 106.472Z" fill="url(#paint28_linear_472_1036)"/>
<path d="M421.776 167.19L419.061 140.887L440.071 125.244L475.091 126.414C475.188 126.416 475.284 126.394 475.37 126.349C475.456 126.304 475.529 126.237 475.582 126.157C475.635 126.076 475.667 125.982 475.674 125.886C475.682 125.789 475.664 125.692 475.624 125.604L461.808 95.6925L477.897 78.2505L498.949 74.2035C498.749 73.9833 498.557 73.756 498.356 73.5376L502.618 57.6157C502.691 57.3435 502.676 57.0556 502.578 56.7918C502.479 56.528 502.301 56.3014 502.068 56.1436L485.677 45.0892C485.443 44.9315 485.166 44.8506 484.885 44.858C484.603 44.8653 484.33 44.9604 484.105 45.13L470.94 55.0426C463.645 52.266 455.947 50.6969 448.147 50.3971L439.906 36.1373C439.764 35.8933 439.551 35.6994 439.294 35.5826C439.038 35.4658 438.751 35.4319 438.474 35.4856L419.061 39.2557C418.784 39.3095 418.531 39.4485 418.337 39.6532C418.143 39.8579 418.017 40.1181 417.978 40.3975L415.669 56.7065C408.55 59.905 402 64.2434 396.278 69.5509L380.356 65.2889C380.084 65.2166 379.796 65.2307 379.532 65.3293C379.268 65.428 379.042 65.6062 378.884 65.8395L367.845 82.2301C367.688 82.4637 367.607 82.7407 367.614 83.0225C367.621 83.3042 367.716 83.5766 367.886 83.8017L377.799 96.9693C375.022 104.264 373.453 111.962 373.155 119.762L358.893 128.003C358.649 128.144 358.455 128.358 358.339 128.615C358.222 128.871 358.188 129.158 358.242 129.435L362.015 148.841C362.069 149.117 362.208 149.37 362.412 149.565C362.616 149.759 362.876 149.884 363.155 149.924L379.464 152.232C382.664 159.351 387.002 165.901 392.309 171.624L392.296 171.674L399.817 164.215L420.626 168.252C420.775 168.281 420.93 168.274 421.076 168.233C421.223 168.191 421.358 168.116 421.47 168.012C421.582 167.909 421.668 167.781 421.721 167.638C421.775 167.495 421.793 167.341 421.776 167.19Z" fill="url(#paint29_linear_472_1036)"/>
<path d="M432.557 130.846C431.359 129.027 430.569 126.971 430.239 124.818C429.909 122.665 430.048 120.467 430.646 118.373C431.244 116.278 432.287 114.338 433.704 112.684C435.121 111.03 436.878 109.701 438.856 108.789C439.538 108.468 440.243 108.197 440.965 107.979C443.516 107.213 446.222 107.129 448.815 107.737C451.408 108.345 453.796 109.622 455.74 111.442C457.684 113.262 459.116 115.56 459.894 118.107C460.671 120.654 460.767 123.36 460.171 125.956L464.875 126.123C465.476 122.909 465.277 119.597 464.294 116.48C463.312 113.362 461.577 110.534 459.242 108.245C456.907 105.957 454.045 104.279 450.908 103.36C447.771 102.44 444.456 102.308 441.255 102.973C438.055 103.639 435.067 105.083 432.557 107.177C430.047 109.272 428.091 111.952 426.863 114.981C425.635 118.011 425.171 121.296 425.514 124.547C425.857 127.798 426.995 130.915 428.828 133.622L432.557 130.846Z" fill="url(#paint30_linear_472_1036)"/>
<path d="M472.868 81.6973C467.556 78.0924 461.582 75.577 455.292 74.2967C449.001 73.0165 442.519 72.9968 436.221 74.2389C409.777 79.3888 392.435 105.086 397.574 131.535C399.261 140.208 403.265 148.263 409.161 154.843C409.337 155.039 409.575 155.17 409.835 155.213C410.095 155.257 410.362 155.21 410.592 155.08C410.822 154.951 411.001 154.747 411.099 154.503C411.197 154.258 411.209 153.987 411.132 153.735C411.083 153.572 410.999 153.421 410.885 153.294C405.267 147.03 401.453 139.358 399.851 131.097C394.953 105.905 411.454 81.4274 436.658 76.5262C442.657 75.3431 448.831 75.3617 454.823 76.581C460.815 77.8003 466.505 80.196 471.565 83.6294C471.847 83.8212 472.121 84.0218 472.399 84.219L473.983 82.5C473.612 82.2301 473.243 81.9601 472.868 81.6973Z" fill="url(#paint31_linear_472_1036)"/>
<path d="M130.316 120.892C152.572 98.6365 152.572 62.553 130.316 40.2973C108.06 18.0417 71.9769 18.0417 49.7212 40.2973C27.4656 62.553 27.4656 98.6365 49.7212 120.892C71.9768 143.148 108.06 143.148 130.316 120.892Z" fill="white"/>
<path d="M128.976 119.552C150.492 98.0366 150.492 63.1528 128.976 41.6372C107.461 20.1215 72.5768 20.1215 51.0611 41.6372C29.5454 63.1528 29.5454 98.0366 51.0611 119.552C72.5768 141.068 107.461 141.068 128.976 119.552Z" fill="url(#paint32_linear_472_1036)"/>
<path opacity="0.7" d="M135.45 58.2904C135.54 58.2906 135.63 58.2693 135.711 58.2283C135.779 58.1938 135.84 58.1462 135.89 58.0882C135.94 58.0301 135.978 57.9628 136.002 57.8901C136.026 57.8174 136.035 57.7406 136.029 57.6643C136.024 57.5879 136.003 57.5134 135.968 57.4451C127.16 39.9943 109.553 29.153 90.0176 29.153C86.9059 29.1523 83.8004 29.4323 80.739 29.9894C80.6619 30.0011 80.588 30.0282 80.5216 30.0691C80.4552 30.1099 80.3976 30.1636 80.3524 30.2271C80.3071 30.2906 80.275 30.3625 80.2581 30.4386C80.2411 30.5147 80.2396 30.5934 80.2537 30.6701C80.2677 30.7468 80.297 30.8199 80.3398 30.885C80.3826 30.9502 80.438 31.0061 80.5028 31.0494C80.5676 31.0928 80.6405 31.1227 80.717 31.1373C80.7936 31.152 80.8723 31.1511 80.9486 31.1348C83.9408 30.5903 86.9762 30.3169 90.0176 30.3179C109.111 30.3179 126.32 40.9142 134.929 57.969C134.978 58.0658 135.052 58.1472 135.144 58.204C135.236 58.2608 135.342 58.2908 135.45 58.2904Z" fill="white"/>
<path d="M121.792 114.767C140.003 96.5565 140.002 67.0315 121.792 48.821C103.582 30.6105 74.0565 30.6105 55.846 48.821C37.6356 67.0315 37.6356 96.5565 55.846 114.767C74.0565 132.977 103.582 132.977 121.792 114.767Z" fill="white"/>
<path d="M91.706 90.8622L86.4283 90.7362C84.958 90.7006 83.7416 89.4434 83.6634 87.9623L81.7313 50.7841C81.7089 50.4283 81.7656 50.0719 81.8973 49.7406C82.029 49.4093 82.2325 49.1113 82.4932 48.868C83.0259 48.3495 83.7469 48.1826 84.5087 48.2358L93.5973 48.868C94.3413 48.9213 95.0516 49.1681 95.5631 49.7559C96.0688 50.3071 96.3352 51.0365 96.3036 51.7839L94.423 88.2784C94.3953 88.978 94.0961 89.6391 93.5888 90.1216C93.0815 90.604 92.4061 90.8697 91.706 90.8622Z" fill="url(#paint33_linear_472_1036)"/>
<path d="M83.5619 99.9438C84.8795 98.6853 86.7311 98.0756 89.1166 98.1147C91.5743 98.1537 93.4401 98.8007 94.7139 100.056C95.9878 101.311 96.6229 103.138 96.6194 105.539C96.6194 107.861 95.9682 109.657 94.666 110.929C93.3637 112.2 91.5145 112.84 89.1184 112.847C86.7637 112.847 84.9192 112.186 83.585 110.863C82.2507 109.541 81.5824 107.727 81.5801 105.42C81.5789 103.032 82.2395 101.207 83.5619 99.9438Z" fill="url(#paint34_linear_472_1036)"/>
<path d="M298.056 55.7705L150.941 302.962C147.711 308.389 151.932 315.038 158.648 315.084L450.272 317.485C457.021 317.54 461.361 310.927 458.187 305.445L313.678 55.8522C310.355 50.1146 301.449 50.0666 298.056 55.7705Z" fill="url(#paint35_linear_472_1036)"/>
<path d="M298.799 70.5363L165.191 295.03C162.257 299.958 166.091 305.988 172.189 306.04L437.044 308.219C443.165 308.269 447.112 302.263 444.23 297.285L312.988 70.6109C309.969 65.4007 301.882 65.3598 298.799 70.5363Z" fill="url(#paint36_linear_472_1036)"/>
<path d="M275.829 224.365L269.301 224.451V236.107L258.039 236.285V224.596L234.51 224.903V216.541L258.675 179.855L269.301 179.866V215.218L275.829 215.153V224.365ZM258.039 215.332V205.759C258.039 204.163 258.098 201.846 258.217 198.808C258.335 195.77 258.435 194.007 258.515 193.518H258.217C257.273 195.669 256.158 197.74 254.882 199.712L244.799 215.463L258.039 215.332Z" fill="url(#paint37_linear_472_1036)"/>
<path d="M318.883 207.602C318.883 217.27 317.374 224.449 314.356 229.139C311.339 233.828 306.665 236.232 300.336 236.352C294.18 236.456 289.525 234.112 286.371 229.32C283.218 224.528 281.641 217.385 281.641 207.893C281.641 198.005 283.174 190.717 286.242 186.028C289.309 181.338 294.007 179.004 300.336 179.026C306.47 179.035 311.095 181.468 314.212 186.326C317.33 191.183 318.886 198.275 318.883 207.602ZM292.921 207.804C292.921 214.652 293.488 219.551 294.622 222.503C295.756 225.454 297.661 226.909 300.336 226.867C302.957 226.832 304.849 225.31 306.01 222.302C307.171 219.294 307.752 214.423 307.752 207.689C307.752 200.873 307.165 195.979 305.992 193.006C304.819 190.034 302.934 188.547 300.336 188.547C297.686 188.547 295.787 190.046 294.64 193.042C293.492 196.038 292.919 200.959 292.921 207.802V207.804Z" fill="url(#paint38_linear_472_1036)"/>
<path d="M363.646 223.229L357.477 223.311V234.64L346.833 234.818V223.453L324.604 223.742V215.616L347.433 179.961L357.477 179.972V214.339L363.646 214.277V223.229ZM346.833 214.442V205.135C346.833 203.584 346.892 201.335 347.011 198.387C347.129 195.439 347.224 193.723 347.295 193.237H347.011C346.122 195.325 345.069 197.338 343.86 199.257L334.335 214.567L346.833 214.442Z" fill="url(#paint39_linear_472_1036)"/>
<path d="M250.417 285.412L233.041 285.97V254.925L250.417 254.536V259.901L239.461 260.164V266.967L249.657 266.7V272.063L239.461 272.347V280.339L250.417 280.006V285.412Z" fill="url(#paint40_linear_472_1036)"/>
<path d="M264.035 273.179V284.975L257.715 285.18V254.373L266.395 254.179C270.42 254.089 273.399 254.781 275.331 256.254C277.263 257.726 278.225 260.003 278.216 263.085C278.239 264.807 277.74 266.495 276.785 267.928C275.829 269.357 274.474 270.494 272.722 271.339C277.169 278.1 280.062 282.46 281.401 284.42L274.461 284.642L267.389 273.085L264.035 273.179ZM264.035 267.88L266.068 267.826C268.059 267.773 269.528 267.391 270.474 266.681C271.42 265.971 271.893 264.881 271.895 263.412C271.895 261.957 271.412 260.934 270.446 260.343C269.48 259.752 267.981 259.481 265.951 259.528L264.038 259.574L264.035 267.88Z" fill="url(#paint41_linear_472_1036)"/>
<path d="M292.333 272.378V284.07L286.117 284.269V253.739L294.641 253.547C298.601 253.459 301.527 254.145 303.419 255.605C305.311 257.066 306.258 259.323 306.26 262.377C306.283 264.08 305.793 265.75 304.854 267.171C303.914 268.592 302.584 269.717 300.863 270.545C305.23 277.246 308.071 281.567 309.387 283.509L302.572 283.727L295.627 272.27L292.333 272.378ZM292.333 267.125L294.33 267.072C296.286 267.02 297.728 266.641 298.656 265.937C299.584 265.233 300.049 264.154 300.05 262.7C300.05 261.258 299.577 260.244 298.629 259.658C297.682 259.072 296.211 258.802 294.215 258.848L292.336 258.892L292.333 267.125Z" fill="url(#paint42_linear_472_1036)"/>
<path d="M339.977 267.496C339.977 272.468 338.812 276.323 336.482 279.058C334.152 281.794 330.799 283.237 326.424 283.388C322.035 283.53 318.661 282.295 316.302 279.682C313.942 277.069 312.758 273.24 312.75 268.196C312.75 263.157 313.934 259.282 316.302 256.57C318.669 253.857 322.054 252.455 326.456 252.363C330.842 252.266 334.192 253.52 336.505 256.126C338.818 258.731 339.975 262.522 339.977 267.496ZM319.15 268.063C319.15 271.439 319.759 273.963 320.977 275.635C322.196 277.306 324.011 278.104 326.424 278.028C331.252 277.882 333.664 274.428 333.662 267.668C333.66 260.909 331.26 257.579 326.463 257.68C324.048 257.736 322.226 258.637 320.997 260.381C319.768 262.124 319.152 264.685 319.15 268.063Z" fill="url(#paint43_linear_472_1036)"/>
<path d="M352.804 270.664V282.131L346.832 282.322V252.381L355.033 252.203C358.844 252.118 361.658 252.791 363.477 254.224C365.295 255.656 366.204 257.871 366.204 260.867C366.228 262.535 365.757 264.172 364.851 265.573C363.947 266.962 362.667 268.066 361.012 268.887C365.213 275.461 367.948 279.702 369.214 281.61L362.656 281.82L355.974 270.579L352.804 270.664ZM352.804 265.514L354.725 265.463C356.607 265.413 357.994 265.043 358.888 264.353C359.782 263.663 360.228 262.604 360.227 261.178C360.227 259.764 359.771 258.769 358.858 258.193C357.945 257.616 356.527 257.35 354.603 257.395L352.797 257.438L352.804 265.514Z" fill="url(#paint44_linear_472_1036)"/>
<path d="M123.945 544.149C123.945 544.149 122.482 552.438 121.764 560.643C121.7 561.403 121.79 562.169 122.03 562.894C122.27 563.619 122.654 564.288 123.159 564.86C123.665 565.433 124.281 565.897 124.97 566.225C125.66 566.552 126.409 566.737 127.172 566.767C138.098 567.222 161.47 568.108 169.857 567.733C170.149 567.719 170.434 567.635 170.688 567.488C170.941 567.341 171.156 567.136 171.314 566.89C171.472 566.643 171.569 566.363 171.597 566.071C171.625 565.78 171.583 565.486 171.474 565.214C171.084 564.231 170.331 563.437 169.37 562.996L130.762 545.252L123.945 544.149Z" fill="url(#paint45_linear_472_1036)"/>
<path d="M122.75 539.28L123.926 549.194C123.926 549.194 130.69 552.341 135.308 548.796L132.506 537.749L122.75 539.28Z" fill="url(#paint46_linear_472_1036)"/>
<path d="M79.5361 548.473C79.5361 548.473 77.2063 552.658 74.9492 563.777C74.8507 564.25 74.8529 564.739 74.9557 565.212C75.0584 565.685 75.2594 566.131 75.5455 566.521C75.8317 566.911 76.1967 567.236 76.6168 567.476C77.0369 567.716 77.5028 567.865 77.9841 567.913C81.5925 568.268 87.1455 568.722 91.5956 568.692C92.0798 568.691 92.5582 568.587 92.9994 568.388C93.4407 568.189 93.835 567.898 94.1563 567.536C94.4777 567.174 94.719 566.748 94.8643 566.286C95.0097 565.825 95.0559 565.337 94.9999 564.856C94.5062 560.799 92.9719 554.139 88.2287 548.949L79.5361 548.473Z" fill="url(#paint47_linear_472_1036)"/>
<path d="M77.4883 535.721L80.2372 550.714C80.2372 550.714 82.956 552.735 88.3313 551.27L87.019 535.138L77.4883 535.721Z" fill="url(#paint48_linear_472_1036)"/>
<path d="M123.631 352.888C123.123 355.477 120.903 482.088 134.436 538.827C134.547 539.273 134.494 539.745 134.286 540.156C134.079 540.566 133.732 540.889 133.307 541.066C131.231 541.915 127.163 543.142 122.285 543.307C121.549 543.33 120.827 543.108 120.231 542.676C119.636 542.244 119.201 541.627 118.994 540.921C115.126 527.757 96.5886 461.8 94.17 398.792C91.4672 328.39 94.17 396.397 94.17 396.397L95.7558 352.877L123.631 352.888Z" fill="#7F246D"/>
<path d="M70.0637 356.77C58.9952 423.57 72.4646 521.873 77.0071 541.114C77.1417 541.691 77.4435 542.214 77.8748 542.62C78.3061 543.025 78.8475 543.294 79.4311 543.392C81.4573 543.728 84.7958 544.003 88.0882 543.037C88.6415 542.876 89.1301 542.544 89.4848 542.09C89.8394 541.635 90.0423 541.081 90.0646 540.505C90.6737 524.951 89.578 429.457 99.8901 391.717C100.413 389.806 101.581 388.135 103.197 386.987L123.212 372.77L124.746 349.766L70.0637 356.77Z" fill="#7F246D"/>
<path d="M164.736 214.883L166.748 226.248C169.98 240.158 170.288 251.752 168.609 261.542C171.387 261.656 174.292 261.853 177.337 262.151C181.083 262.52 184.618 263.009 187.93 263.572C186.181 249.426 176.767 225.925 176.767 225.925C171.09 217.745 170.414 223.078 164.736 214.883Z" fill="url(#paint49_linear_472_1036)"/>
<path d="M187.734 190.92C186.609 190.89 185.492 191.115 184.465 191.576C183.439 192.037 182.529 192.723 181.803 193.584L167.455 210.585C167.455 210.585 164.843 210.052 164.599 205.052C164.356 200.051 159.041 199.449 159.041 199.449C159.041 199.449 159.808 206.423 161.266 216.745C162.101 222.648 165.59 226.956 168.426 229.567L176.726 226.709C184.341 215.826 189.066 203.83 191.695 191.026L187.734 190.92Z" fill="url(#paint50_linear_472_1036)"/>
<path d="M97.6113 197.835C92.4615 208.095 90.3145 218.546 89.6699 228.276C90.778 228.688 105.551 238.93 115.439 229.016C113.325 222.208 113.675 211.968 114.213 201.447L97.6113 197.835Z" fill="url(#paint51_linear_472_1036)"/>
<path d="M124.412 170.868C124.696 171.326 132.078 206.142 132.078 206.142L112.109 209.935L100.211 177.971C100.211 177.971 119.674 163.207 124.412 170.868Z" fill="url(#paint52_linear_472_1036)"/>
<path d="M107.832 180.817C107.569 181.177 107.392 181.592 107.313 182.031C107.235 182.47 107.258 182.921 107.381 183.35L112.256 200.415C112.329 200.673 112.437 200.919 112.579 201.147C113.365 202.404 116.194 206.21 120.009 203.086C123.26 200.422 126.284 198.02 128.996 197.421C129.373 197.341 129.762 197.336 130.141 197.407C130.521 197.478 130.882 197.623 131.204 197.834C131.527 198.046 131.804 198.319 132.02 198.638C132.237 198.957 132.388 199.316 132.464 199.694C133.144 202.963 134.384 209.589 134.659 215.628C134.689 216.359 134.442 217.074 133.968 217.631C133.494 218.188 132.828 218.546 132.102 218.633C128.133 219.123 120.353 219.848 113.843 219.031C113.319 218.965 112.823 218.759 112.407 218.433C111.991 218.108 111.671 217.675 111.481 217.182C109.771 212.757 104.932 200.373 103.028 197.087C101.253 194.035 96.561 193.747 94.3981 193.784C93.9933 193.793 93.5913 193.717 93.2172 193.563C92.8431 193.408 92.5051 193.178 92.2245 192.886C90.5162 191.11 87.785 187.104 92.4198 182.803C92.9701 182.278 93.2943 181.56 93.3235 180.8C93.3526 180.041 93.0845 179.299 92.5761 178.734C90.7026 176.628 88.989 173.158 92.5583 169.241C96.1739 165.276 100.535 166.004 103.336 167.133C104.579 167.634 106.054 167.311 106.866 166.245C107.221 165.773 107.781 165.437 108.629 165.49C110.228 165.588 111.597 164.468 111.707 162.869C111.895 160.127 113.186 156.846 117.959 155.676C126.712 153.527 131.562 162.154 131.713 168.378C131.864 174.602 122.243 176.392 116.695 175.634C112.62 175.08 109.306 178.802 107.832 180.817Z" fill="url(#paint53_linear_472_1036)"/>
<path d="M106.019 203.56C106.019 203.56 104.16 192.538 99.7205 191.739C95.281 190.939 90.703 194.347 94.7803 200.653C99.8519 208.49 106.019 203.56 106.019 203.56Z" fill="url(#paint54_linear_472_1036)"/>
<path d="M98.6927 163.906C99.5469 163.88 100.401 163.959 101.236 164.144C103.345 164.592 106.158 165.677 105.425 167.707C104.326 170.756 98.6199 167.907 95.5815 172.823C92.9035 177.154 95.0949 181.858 94.2762 186.527C93.8767 188.798 92.4188 192.168 90.389 193.495C89.4816 194.088 82.318 195.223 81.9255 193.951L79.9349 187.489C78.1431 181.675 85.0314 171.99 88.583 168.074C91.3178 165.048 95.0327 164.056 98.6927 163.906Z" fill="url(#paint55_linear_472_1036)"/>
<path d="M91.904 187.235L85.0511 192.941C71.9102 198.529 62.3617 205.116 55.4431 212.24C52.3821 206.418 47.9005 201.463 42.4141 197.835C55.6616 191.311 65.5226 188.601 65.5226 188.601C92.2573 177.843 91.904 187.235 91.904 187.235Z" fill="url(#paint56_linear_472_1036)"/>
<path d="M168.61 261.551C166.929 273.518 165.151 276.267 163.771 276.338C159.38 276.565 160.264 249.585 144.198 235.937C134.044 227.313 120.193 226.603 109.314 227.612C114.39 245.81 119.464 264.008 124.537 282.205C126.753 287.643 136.413 309.632 158.277 316.301C162.727 317.661 169.351 319.675 175.502 317.034C187.661 311.808 193.363 290.397 187.933 263.582C185.374 262.629 181.837 261.618 168.61 261.551Z" fill="url(#paint57_linear_472_1036)"/>
<path d="M52.5039 237.174C53.4611 236.924 59.996 230.17 60.978 229.984C77.0864 226.914 117.291 216.085 144.199 235.937C144.267 236.51 144.309 236.968 144.336 237.346C144.752 237.952 145.122 238.587 145.446 239.247C148.026 244.246 151.067 248.994 154.527 253.43C153.752 254.196 153.118 255.094 152.656 256.081C146.19 269.932 121.679 325.247 125.987 359.078C126.101 359.914 125.881 360.761 125.373 361.435C124.865 362.109 124.112 362.555 123.277 362.676C113.762 363.99 85.4255 367.2 70.7858 361.154C70.3701 360.982 70.0157 360.689 69.769 360.313C69.5222 359.937 69.3945 359.496 69.4025 359.046C69.4983 352.259 69.2107 322.803 58.412 287.303C58.0121 285.98 57.6808 284.637 57.4193 283.279C57.2861 283.551 57.1618 283.823 57.0322 284.095L52.5039 237.174Z" fill="url(#paint58_linear_472_1036)"/>
<path d="M77.0859 226.914C47.0464 229.11 40.7689 246.27 20.0098 235.78L23.6857 267.922C31.3838 276.423 43.0064 282.212 57.6515 284.384L77.0859 226.914Z" fill="url(#paint59_linear_472_1036)"/>
<path d="M55.4407 212.24C33.8363 234.489 40.1493 223.183 39.977 242.148C39.9131 249.218 33.7777 276.215 33.7777 276.215C-32.2947 247.673 22.8441 208.712 42.4117 197.835C47.8981 201.463 52.3796 206.418 55.4407 212.24Z" fill="url(#paint60_linear_472_1036)"/>
<defs>
<linearGradient id="paint0_linear_472_1036" x1="464.882" y1="515.941" x2="135.871" y2="107.34" gradientUnits="userSpaceOnUse">
<stop stop-color="#B2016B" stop-opacity="0.21"/>
<stop offset="1" stop-color="#FF0089" stop-opacity="0.36"/>
</linearGradient>
<linearGradient id="paint1_linear_472_1036" x1="330.023" y1="401.324" x2="429.065" y2="189.485" gradientUnits="userSpaceOnUse">
<stop stop-color="#601061"/>
<stop offset="1" stop-color="#370095"/>
</linearGradient>
<linearGradient id="paint2_linear_472_1036" x1="287.072" y1="18.8392" x2="287.072" y2="243.059" gradientUnits="userSpaceOnUse">
<stop stop-color="#601061"/>
<stop offset="1" stop-color="#370095"/>
</linearGradient>
<linearGradient id="paint3_linear_472_1036" x1="466.265" y1="-58.1039" x2="431.913" y2="328.768" gradientUnits="userSpaceOnUse">
<stop stop-color="#DF5FE5"/>
<stop offset="1" stop-color="#FF64EB"/>
</linearGradient>
<linearGradient id="paint4_linear_472_1036" x1="378.473" y1="-65.8998" x2="344.12" y2="320.963" gradientUnits="userSpaceOnUse">
<stop stop-color="#DF5FE5"/>
<stop offset="1" stop-color="#FF64EB"/>
</linearGradient>
<linearGradient id="paint5_linear_472_1036" x1="353.699" y1="-68.1011" x2="319.348" y2="318.765" gradientUnits="userSpaceOnUse">
<stop stop-color="#DF5FE5"/>
<stop offset="1" stop-color="#FF64EB"/>
</linearGradient>
<linearGradient id="paint6_linear_472_1036" x1="365.05" y1="-67.0902" x2="330.699" y2="319.772" gradientUnits="userSpaceOnUse">
<stop stop-color="#DF5FE5"/>
<stop offset="1" stop-color="#FF64EB"/>
</linearGradient>
<linearGradient id="paint7_linear_472_1036" x1="441.301" y1="-60.3181" x2="406.95" y2="326.539" gradientUnits="userSpaceOnUse">
<stop stop-color="#DF5FE5"/>
<stop offset="1" stop-color="#FF64EB"/>
</linearGradient>
<linearGradient id="paint8_linear_472_1036" x1="356.661" y1="-67.8375" x2="322.309" y2="319.027" gradientUnits="userSpaceOnUse">
<stop stop-color="#DF5FE5"/>
<stop offset="1" stop-color="#FF64EB"/>
</linearGradient>
<linearGradient id="paint9_linear_472_1036" x1="356.477" y1="-67.8545" x2="322.125" y2="319.012" gradientUnits="userSpaceOnUse">
<stop stop-color="#DF5FE5"/>
<stop offset="1" stop-color="#FF64EB"/>
</linearGradient>
<linearGradient id="paint10_linear_472_1036" x1="396.261" y1="-64.3187" x2="361.91" y2="322.542" gradientUnits="userSpaceOnUse">
<stop stop-color="#DF5FE5"/>
<stop offset="1" stop-color="#FF64EB"/>
</linearGradient>
<linearGradient id="paint11_linear_472_1036" x1="417.568" y1="-62.4265" x2="383.216" y2="324.432" gradientUnits="userSpaceOnUse">
<stop stop-color="#DF5FE5"/>
<stop offset="1" stop-color="#FF64EB"/>
</linearGradient>
<linearGradient id="paint12_linear_472_1036" x1="364.656" y1="-67.1286" x2="330.304" y2="319.74" gradientUnits="userSpaceOnUse">
<stop stop-color="#DF5FE5"/>
<stop offset="1" stop-color="#FF64EB"/>
</linearGradient>
<linearGradient id="paint13_linear_472_1036" x1="488.886" y1="-56.0942" x2="454.534" y2="330.778" gradientUnits="userSpaceOnUse">
<stop stop-color="#DF5FE5"/>
<stop offset="1" stop-color="#FF64EB"/>
</linearGradient>
<linearGradient id="paint14_linear_472_1036" x1="460.293" y1="-58.6418" x2="425.939" y2="328.235" gradientUnits="userSpaceOnUse">
<stop stop-color="#DF5FE5"/>
<stop offset="1" stop-color="#FF64EB"/>
</linearGradient>
<linearGradient id="paint15_linear_472_1036" x1="571.074" y1="-44.5976" x2="536.723" y2="342.27" gradientUnits="userSpaceOnUse">
<stop stop-color="#DF5FE5"/>
<stop offset="1" stop-color="#FF64EB"/>
</linearGradient>
<linearGradient id="paint16_linear_472_1036" x1="587.131" y1="-43.1702" x2="552.78" y2="343.696" gradientUnits="userSpaceOnUse">
<stop stop-color="#DF5FE5"/>
<stop offset="1" stop-color="#FF64EB"/>
</linearGradient>
<linearGradient id="paint17_linear_472_1036" x1="587.934" y1="-43.1" x2="553.583" y2="343.766" gradientUnits="userSpaceOnUse">
<stop stop-color="#DF5FE5"/>
<stop offset="1" stop-color="#FF64EB"/>
</linearGradient>
<linearGradient id="paint18_linear_472_1036" x1="573.434" y1="-44.3848" x2="539.083" y2="342.477" gradientUnits="userSpaceOnUse">
<stop stop-color="#DF5FE5"/>
<stop offset="1" stop-color="#FF64EB"/>
</linearGradient>
<linearGradient id="paint19_linear_472_1036" x1="540.343" y1="-47.3212" x2="505.992" y2="339.539" gradientUnits="userSpaceOnUse">
<stop stop-color="#DF5FE5"/>
<stop offset="1" stop-color="#FF64EB"/>
</linearGradient>
<linearGradient id="paint20_linear_472_1036" x1="558.896" y1="-45.676" x2="524.545" y2="341.185" gradientUnits="userSpaceOnUse">
<stop stop-color="#DF5FE5"/>
<stop offset="1" stop-color="#FF64EB"/>
</linearGradient>
<linearGradient id="paint21_linear_472_1036" x1="583.277" y1="-43.5114" x2="548.926" y2="343.353" gradientUnits="userSpaceOnUse">
<stop stop-color="#DF5FE5"/>
<stop offset="1" stop-color="#FF64EB"/>
</linearGradient>
<linearGradient id="paint22_linear_472_1036" x1="494.886" y1="-51.3565" x2="460.534" y2="335.5" gradientUnits="userSpaceOnUse">
<stop stop-color="#DF5FE5"/>
<stop offset="1" stop-color="#FF64EB"/>
</linearGradient>
<linearGradient id="paint23_linear_472_1036" x1="518.647" y1="-49.247" x2="484.296" y2="337.611" gradientUnits="userSpaceOnUse">
<stop stop-color="#DF5FE5"/>
<stop offset="1" stop-color="#FF64EB"/>
</linearGradient>
<linearGradient id="paint24_linear_472_1036" x1="580.945" y1="-43.7203" x2="546.592" y2="343.146" gradientUnits="userSpaceOnUse">
<stop stop-color="#DF5FE5"/>
<stop offset="1" stop-color="#FF64EB"/>
</linearGradient>
<linearGradient id="paint25_linear_472_1036" x1="438.142" y1="-60.6038" x2="403.79" y2="326.266" gradientUnits="userSpaceOnUse">
<stop stop-color="#DF5FE5"/>
<stop offset="1" stop-color="#FF64EB"/>
</linearGradient>
<linearGradient id="paint26_linear_472_1036" x1="445.538" y1="145.445" x2="481.578" y2="145.445" gradientUnits="userSpaceOnUse">
<stop stop-color="#DF5FE5"/>
<stop offset="1" stop-color="#FF64EB"/>
</linearGradient>
<linearGradient id="paint27_linear_472_1036" x1="460.069" y1="138.028" x2="511.12" y2="138.028" gradientUnits="userSpaceOnUse">
<stop stop-color="#DF5FE5"/>
<stop offset="1" stop-color="#FF64EB"/>
</linearGradient>
<linearGradient id="paint28_linear_472_1036" x1="404.707" y1="90.8676" x2="572.457" y2="173.811" gradientUnits="userSpaceOnUse">
<stop offset="0.0812499" stop-color="#B2016B"/>
<stop offset="0.492708" stop-color="#1E149D"/>
<stop offset="0.89375" stop-color="#B2016B"/>
</linearGradient>
<linearGradient id="paint29_linear_472_1036" x1="358.217" y1="40.9093" x2="526.315" y2="123.585" gradientUnits="userSpaceOnUse">
<stop offset="0.0812499" stop-color="#B2016B"/>
<stop offset="0.492708" stop-color="#1E149D"/>
<stop offset="0.89375" stop-color="#B2016B"/>
</linearGradient>
<linearGradient id="paint30_linear_472_1036" x1="425.464" y1="118.158" x2="465.2" y2="118.158" gradientUnits="userSpaceOnUse">
<stop stop-color="#DF5FE5"/>
<stop offset="1" stop-color="#FF64EB"/>
</linearGradient>
<linearGradient id="paint31_linear_472_1036" x1="396.674" y1="114.282" x2="473.985" y2="114.282" gradientUnits="userSpaceOnUse">
<stop stop-color="#DF5FE5"/>
<stop offset="1" stop-color="#FF64EB"/>
</linearGradient>
<linearGradient id="paint32_linear_472_1036" x1="125.62" y1="-57.9195" x2="73.9476" y2="143.126" gradientUnits="userSpaceOnUse">
<stop stop-color="#FE7062"/>
<stop offset="1" stop-color="#FF928E"/>
</linearGradient>
<linearGradient id="paint33_linear_472_1036" x1="272.639" y1="-153.675" x2="192.019" y2="-56.2099" gradientUnits="userSpaceOnUse">
<stop stop-color="#E4483E"/>
<stop offset="1" stop-color="#EB615B"/>
</linearGradient>
<linearGradient id="paint34_linear_472_1036" x1="290.924" y1="-138.547" x2="210.306" y2="-41.0817" gradientUnits="userSpaceOnUse">
<stop stop-color="#E4483E"/>
<stop offset="1" stop-color="#EB615B"/>
</linearGradient>
<linearGradient id="paint35_linear_472_1036" x1="260.586" y1="59.3647" x2="310.591" y2="342.33" gradientUnits="userSpaceOnUse">
<stop stop-color="#601061"/>
<stop offset="1" stop-color="#370095"/>
</linearGradient>
<linearGradient id="paint36_linear_472_1036" x1="392.361" y1="96.6442" x2="133.605" y2="695.932" gradientUnits="userSpaceOnUse">
<stop stop-color="#FE7062"/>
<stop offset="1" stop-color="#FF928E"/>
</linearGradient>
<linearGradient id="paint37_linear_472_1036" x1="231.48" y1="278.057" x2="363.623" y2="-43.2608" gradientUnits="userSpaceOnUse">
<stop stop-color="#601061"/>
<stop offset="1" stop-color="#370095"/>
</linearGradient>
<linearGradient id="paint38_linear_472_1036" x1="265.543" y1="292.066" x2="397.688" y2="-29.2515" gradientUnits="userSpaceOnUse">
<stop stop-color="#601061"/>
<stop offset="1" stop-color="#370095"/>
</linearGradient>
<linearGradient id="paint39_linear_472_1036" x1="307.202" y1="309.197" x2="439.345" y2="-12.1201" gradientUnits="userSpaceOnUse">
<stop stop-color="#601061"/>
<stop offset="1" stop-color="#370095"/>
</linearGradient>
<linearGradient id="paint40_linear_472_1036" x1="237.472" y1="280.521" x2="369.616" y2="-40.7961" gradientUnits="userSpaceOnUse">
<stop stop-color="#601061"/>
<stop offset="1" stop-color="#370095"/>
</linearGradient>
<linearGradient id="paint41_linear_472_1036" x1="261" y1="290.198" x2="393.145" y2="-31.1213" gradientUnits="userSpaceOnUse">
<stop stop-color="#601061"/>
<stop offset="1" stop-color="#370095"/>
</linearGradient>
<linearGradient id="paint42_linear_472_1036" x1="284.853" y1="300.008" x2="416.997" y2="-21.3117" gradientUnits="userSpaceOnUse">
<stop stop-color="#601061"/>
<stop offset="1" stop-color="#370095"/>
</linearGradient>
<linearGradient id="paint43_linear_472_1036" x1="309.042" y1="309.956" x2="441.185" y2="-11.3566" gradientUnits="userSpaceOnUse">
<stop stop-color="#601061"/>
<stop offset="1" stop-color="#370095"/>
</linearGradient>
<linearGradient id="paint44_linear_472_1036" x1="335.826" y1="320.969" x2="467.968" y2="-0.350161" gradientUnits="userSpaceOnUse">
<stop stop-color="#601061"/>
<stop offset="1" stop-color="#370095"/>
</linearGradient>
<linearGradient id="paint45_linear_472_1036" x1="168.635" y1="532.693" x2="27.2595" y2="686.471" gradientUnits="userSpaceOnUse">
<stop stop-color="#601061"/>
<stop offset="1" stop-color="#370095"/>
</linearGradient>
<linearGradient id="paint46_linear_472_1036" x1="122.75" y1="544.115" x2="135.308" y2="544.115" gradientUnits="userSpaceOnUse">
<stop stop-color="#D39B9A"/>
<stop offset="1" stop-color="#FF928E"/>
</linearGradient>
<linearGradient id="paint47_linear_472_1036" x1="136.92" y1="503.536" x2="-4.45565" y2="657.314" gradientUnits="userSpaceOnUse">
<stop stop-color="#601061"/>
<stop offset="1" stop-color="#370095"/>
</linearGradient>
<linearGradient id="paint48_linear_472_1036" x1="77.4883" y1="543.47" x2="88.3313" y2="543.47" gradientUnits="userSpaceOnUse">
<stop stop-color="#D39B9A"/>
<stop offset="1" stop-color="#FF928E"/>
</linearGradient>
<linearGradient id="paint49_linear_472_1036" x1="122.337" y1="168.372" x2="249.323" y2="358.576" gradientUnits="userSpaceOnUse">
<stop stop-color="#D39B9A"/>
<stop offset="1" stop-color="#FF928E"/>
</linearGradient>
<linearGradient id="paint50_linear_472_1036" x1="142.575" y1="154.861" x2="269.561" y2="345.063" gradientUnits="userSpaceOnUse">
<stop stop-color="#D39B9A"/>
<stop offset="1" stop-color="#FF928E"/>
</linearGradient>
<linearGradient id="paint51_linear_472_1036" x1="116.624" y1="194.471" x2="66.0999" y2="289.295" gradientUnits="userSpaceOnUse">
<stop stop-color="#D39B9A"/>
<stop offset="1" stop-color="#FF928E"/>
</linearGradient>
<linearGradient id="paint52_linear_472_1036" x1="50.067" y1="182.065" x2="148.348" y2="193.72" gradientUnits="userSpaceOnUse">
<stop stop-color="#D39B9A"/>
<stop offset="1" stop-color="#FF928E"/>
</linearGradient>
<linearGradient id="paint53_linear_472_1036" x1="97.9354" y1="202.751" x2="139.426" y2="177.106" gradientUnits="userSpaceOnUse">
<stop stop-color="#601061"/>
<stop offset="1" stop-color="#370095"/>
</linearGradient>
<linearGradient id="paint54_linear_472_1036" x1="48.7706" y1="192.979" x2="147.053" y2="204.634" gradientUnits="userSpaceOnUse">
<stop stop-color="#D39B9A"/>
<stop offset="1" stop-color="#FF928E"/>
</linearGradient>
<linearGradient id="paint55_linear_472_1036" x1="104.387" y1="170.545" x2="25.5663" y2="224.038" gradientUnits="userSpaceOnUse">
<stop stop-color="#D39B9A"/>
<stop offset="1" stop-color="#FF928E"/>
</linearGradient>
<linearGradient id="paint56_linear_472_1036" x1="102.811" y1="168.958" x2="20.8172" y2="224.605" gradientUnits="userSpaceOnUse">
<stop stop-color="#D39B9A"/>
<stop offset="1" stop-color="#FF928E"/>
</linearGradient>
<linearGradient id="paint57_linear_472_1036" x1="167.405" y1="208.424" x2="140.453" y2="301.015" gradientUnits="userSpaceOnUse">
<stop stop-color="#E54788"/>
<stop offset="1" stop-color="#D5439C"/>
</linearGradient>
<linearGradient id="paint58_linear_472_1036" x1="125.964" y1="195.223" x2="77.1308" y2="332.78" gradientUnits="userSpaceOnUse">
<stop stop-color="#E54788"/>
<stop offset="1" stop-color="#D5439C"/>
</linearGradient>
<linearGradient id="paint59_linear_472_1036" x1="61.1061" y1="215.026" x2="45.686" y2="274.407" gradientUnits="userSpaceOnUse">
<stop stop-color="#E54788"/>
<stop offset="1" stop-color="#D5439C"/>
</linearGradient>
<linearGradient id="paint60_linear_472_1036" x1="40.5411" y1="181.622" x2="11.845" y2="257.17" gradientUnits="userSpaceOnUse">
<stop stop-color="#E54788"/>
<stop offset="1" stop-color="#D5439C"/>
</linearGradient>
</defs>
</svg>
