<svg width="104" height="102" viewBox="0 0 104 102" fill="none" xmlns="http://www.w3.org/2000/svg">
<path d="M57.1903 96.5952C82.5587 93.7183 100.804 70.9286 97.942 45.693C95.0802 20.4574 72.195 2.3322 46.8266 5.20911C21.4582 8.08602 3.21305 30.8757 6.07489 56.1112C8.93674 81.3468 31.8219 99.4721 57.1903 96.5952Z" fill="url(#paint0_linear_1530_4996)"/>
<path d="M54.0249 94.8222C78.4604 92.1071 96.0799 70.2013 93.3791 45.8942C90.6783 21.587 68.68 4.08325 44.2444 6.79831C19.8089 9.51336 2.18942 31.4191 4.89021 55.7263C7.591 80.0334 29.5893 97.5372 54.0249 94.8222Z" fill="url(#paint1_linear_1530_4996)"/>
<path d="M10.811 54.0169H10.8469C10.9261 54.0123 11.0036 53.9922 11.0749 53.9576C11.1463 53.923 11.2101 53.8747 11.2627 53.8154C11.3154 53.7561 11.3558 53.6869 11.3816 53.612C11.4075 53.537 11.4184 53.4577 11.4135 53.3786C11.3107 51.6754 11.3155 49.9674 11.4278 48.2648C11.4382 48.1054 11.3849 47.9483 11.2797 47.828C11.1746 47.7077 11.026 47.634 10.8666 47.6229C10.7073 47.6145 10.551 47.6687 10.4311 47.7739C10.3112 47.879 10.2371 48.0269 10.2247 48.186C10.1082 49.9392 10.1028 51.6981 10.2086 53.4521C10.2186 53.6051 10.2864 53.7486 10.3983 53.8535C10.5102 53.9583 10.6577 54.0168 10.811 54.0169Z" fill="white"/>
<path d="M13.2891 37.3419C13.4121 37.3419 13.5321 37.3042 13.633 37.2341C13.734 37.1639 13.8111 37.0644 13.8539 36.9492C19.233 22.5332 32.0926 12.4976 47.432 10.7584C49.8759 10.4802 52.3397 10.4202 54.7942 10.5791C54.9504 10.5835 55.1023 10.5273 55.2179 10.4222C55.3335 10.3171 55.4039 10.1713 55.4144 10.0154C55.4248 9.8595 55.3745 9.70562 55.2739 9.58605C55.1733 9.46649 55.0303 9.39052 54.8749 9.37412C52.3483 9.20718 49.8117 9.26719 47.2958 9.55342C31.5027 11.3465 18.2486 21.6761 12.7243 36.5206C12.6965 36.5951 12.6838 36.6744 12.6868 36.7538C12.6899 36.8333 12.7086 36.9114 12.742 36.9835C12.7753 37.0557 12.8226 37.1205 12.8811 37.1743C12.9396 37.2282 13.0082 37.2699 13.0829 37.297C13.1485 37.3239 13.2183 37.339 13.2891 37.3419Z" fill="white"/>
<path d="M52.3915 75.4741C65.4627 74.9362 75.8946 63.762 75.8946 50.551C75.8946 37.3399 65.4627 26.5942 52.3915 26.6104C39.0352 26.6265 27.9561 37.8186 27.9561 51.5587C27.9561 65.2987 39.0352 76.0192 52.3915 75.4741ZM52.3915 28.7208C64.3403 28.6867 73.8936 38.4964 73.8936 50.5958C73.8936 62.6952 64.3403 72.8975 52.3915 73.3673C40.1988 73.8443 30.1112 64.0435 30.1112 51.5174C30.1112 38.9913 40.2042 28.7566 52.3915 28.7208Z" fill="#F4F7FA"/>
<path d="M40.249 51.2952C40.249 58.132 45.7142 63.5075 52.3914 63.3085C58.9952 63.1041 64.2972 57.5027 64.2972 50.7968C64.2972 44.0908 58.9952 38.7117 52.3914 38.7834C45.7142 38.8534 40.249 44.4565 40.249 51.2952Z" fill="#F4F7FA"/>
<path d="M35.7342 30.3793C35.7302 31.0664 35.8624 31.7474 36.1231 32.3831C36.3839 33.0188 36.768 33.5965 37.2534 34.0829C37.7387 34.5692 38.3156 34.9545 38.9507 35.2166C39.5859 35.4786 40.2667 35.6122 40.9538 35.6096C41.9952 35.6163 43.0152 35.3134 43.8841 34.7392C44.753 34.165 45.4317 33.3455 45.8339 32.3848C46.236 31.4241 46.3436 30.3655 46.1428 29.3435C45.9421 28.3215 45.4421 27.3823 44.7064 26.6451C43.9707 25.9079 43.0325 25.406 42.011 25.2031C40.9894 25.0003 39.9306 25.1057 38.9691 25.5059C38.0075 25.906 37.1866 26.583 36.6106 27.4507C36.0347 28.3185 35.7296 29.3378 35.7342 30.3793Z" fill="#F4F7FA"/>
<defs>
<linearGradient id="paint0_linear_1530_4996" x1="44.0147" y1="-9.92887" x2="64.3372" y2="116.646" gradientUnits="userSpaceOnUse">
<stop/>
<stop offset="1" stop-color="#1E149D"/>
</linearGradient>
<linearGradient id="paint1_linear_1530_4996" x1="41.053" y1="-15.1101" x2="69.7917" y2="176.474" gradientUnits="userSpaceOnUse">
<stop stop-color="#5346F8"/>
<stop offset="1"/>
</linearGradient>
</defs>
</svg>
