<svg width="103" height="102" viewBox="0 0 103 102" fill="none" xmlns="http://www.w3.org/2000/svg">
<path d="M56.2972 96.5952C81.6657 93.7183 99.9108 70.9286 97.049 45.693C94.1871 20.4575 71.302 2.33219 45.9336 5.2091C20.5652 8.08601 2.31998 30.8757 5.18183 56.1113C8.04368 81.3468 30.9288 99.4721 56.2972 96.5952Z" fill="url(#paint0_linear_1530_4842)"/>
<path d="M56.1033 95.1259C80.6285 92.3446 98.2672 70.3129 95.5005 45.9166C92.7339 21.5203 70.6095 3.99795 46.0843 6.77923C21.5592 9.56051 3.92044 31.5923 6.6871 55.9885C9.45376 80.3848 31.5782 97.9072 56.1033 95.1259Z" fill="url(#paint1_linear_1530_4842)"/>
<path d="M9.92552 54.002H9.96316C10.0423 53.9974 10.1197 53.9773 10.1909 53.9427C10.2622 53.9081 10.3259 53.8597 10.3784 53.8004C10.4309 53.741 10.4711 53.6719 10.4968 53.597C10.5225 53.522 10.533 53.4427 10.528 53.3637C10.426 51.6622 10.4314 49.9561 10.5441 48.2553C10.5479 48.0994 10.4913 47.948 10.3861 47.8328C10.2808 47.7177 10.1352 47.6477 9.97954 47.6375C9.82388 47.6273 9.67028 47.6777 9.55093 47.7782C9.43159 47.8786 9.35572 48.0213 9.33919 48.1764C9.22234 49.9297 9.21754 51.6887 9.32483 53.4426C9.33571 53.5945 9.40373 53.7366 9.51517 53.8404C9.62661 53.9442 9.77323 54.0019 9.92552 54.002Z" fill="white"/>
<path d="M12.4106 37.3266C12.5335 37.3264 12.6535 37.2886 12.7544 37.2185C12.8553 37.1483 12.9324 37.049 12.9754 36.9339C18.3545 22.5179 31.2124 12.4823 46.5536 10.7431C48.9975 10.4649 51.4612 10.4049 53.9157 10.5638C54.0749 10.5718 54.231 10.5174 54.3508 10.4123C54.4706 10.3072 54.5448 10.1596 54.5577 10.0008C54.568 9.84131 54.5147 9.68423 54.4096 9.56393C54.3044 9.44363 54.1559 9.36989 53.9965 9.35885C51.4698 9.1928 48.9333 9.25281 46.4173 9.53815C30.6225 11.3312 17.3701 21.6626 11.844 36.5054C11.8165 36.5799 11.804 36.6591 11.8071 36.7385C11.8103 36.8179 11.8291 36.8958 11.8624 36.9679C11.8957 37.04 11.9429 37.1049 12.0013 37.1587C12.0596 37.2126 12.1281 37.2544 12.2026 37.2818C12.2687 37.3092 12.3391 37.3244 12.4106 37.3266Z" fill="white"/>
<path d="M48.3915 51.2209C48.3833 51.7256 48.4766 52.2269 48.666 52.6948C48.8553 53.1628 49.1369 53.5879 49.4938 53.9449C49.8508 54.3018 50.2759 54.5834 50.7438 54.7727C51.2118 54.9621 51.713 55.0554 52.2178 55.0472C53.2449 55.0145 54.2187 54.5823 54.932 53.8426C55.6452 53.1029 56.0417 52.114 56.037 51.0864C56.0447 50.5838 55.9516 50.0847 55.7634 49.6186C55.5751 49.1525 55.2954 48.7288 54.9408 48.3726C54.5862 48.0163 54.1638 47.7346 53.6986 47.5442C53.2334 47.3537 52.7348 47.2583 52.2322 47.2636C51.2019 47.2908 50.2232 47.7201 49.5054 48.4596C48.7877 49.1992 48.3879 50.1903 48.3915 51.2209Z" fill="white"/>
<path d="M61.8249 74.6791C63.9568 74.6038 65.8215 73.9619 67.3743 72.7838C74.0283 67.7131 72.6835 54.3801 64.2957 42.2664C58.0452 33.2403 49.4996 27.3699 42.5067 27.3699C40.3157 27.3699 38.3828 27.9508 36.769 29.0984C29.7439 34.0866 31.1317 47.8284 39.9104 60.2129C46.3331 69.2677 54.9414 74.9211 61.8249 74.6791ZM42.5014 29.8209C48.6425 29.8102 56.6215 35.4027 62.3682 43.6847C69.7716 54.355 71.4319 66.7377 66.0188 70.8509C64.8712 71.7224 63.4601 72.1921 61.8285 72.2477C55.7877 72.4485 47.7782 67.0479 41.9061 58.7444C34.2104 47.8696 32.4909 35.1516 38.173 31.1048C39.3707 30.2566 40.8285 29.8245 42.5067 29.8209H42.5014Z" fill="white"/>
<path d="M42.3901 75.3622C49.4081 75.1148 58.0002 68.9073 64.283 59.6283C72.6924 47.2116 74.0425 33.8696 67.4119 29.0589C65.8681 27.9383 64.0051 27.3699 61.8858 27.3699C55.0202 27.3699 46.4137 33.2869 39.9623 42.5371C31.1101 55.2211 29.6255 69.0543 36.6399 73.8256C38.2554 74.9229 40.1901 75.4393 42.3901 75.3622ZM61.884 29.7869C63.5103 29.7869 64.916 30.2029 66.0582 31.0295C71.4534 34.9329 69.7805 47.3461 62.3573 58.2836C56.5802 66.7951 48.5509 72.6978 42.3973 72.904C40.7136 72.9595 39.2541 72.5776 38.0635 71.7654C32.3904 67.896 34.1941 55.0902 41.949 43.9411C47.8517 35.4546 55.8612 29.7976 61.884 29.7869Z" fill="white"/>
<path d="M51.6978 65.1779L52.415 65.5167C59.3558 65.2209 65.8143 63.6861 70.6286 60.8782C75.6491 57.9537 78.3584 54.2439 78.2992 50.2329C78.1862 42.3436 67.0802 36.3011 52.7502 36.3979L52.033 36.4302C42.1714 36.6364 33.0663 39.7939 28.365 44.6781C26.2044 46.9212 25.0766 49.0926 25.1053 51.644C25.2003 59.8472 37.0056 66.476 51.6978 65.1779ZM52.7449 38.8794C65.5669 38.7701 75.8965 43.9358 75.9898 50.3979C76.0328 53.4711 73.7431 56.5085 69.5187 58.9632C65.0254 61.5756 58.9488 63.1679 52.3845 63.4458L51.7031 63.4691C38.5907 63.8169 27.6765 58.6494 27.5976 51.9471C27.5743 50.0482 28.4314 48.1817 30.1383 46.4048C34.3896 41.9778 42.8223 39.1089 52.0653 38.8991L52.7449 38.8794Z" fill="white"/>
<defs>
<linearGradient id="paint0_linear_1530_4842" x1="30.8598" y1="-49.632" x2="68.1172" y2="123.386" gradientUnits="userSpaceOnUse">
<stop/>
<stop offset="1" stop-color="#1E149D"/>
</linearGradient>
<linearGradient id="paint1_linear_1530_4842" x1="44.7592" y1="0.394776" x2="74.0446" y2="192.664" gradientUnits="userSpaceOnUse">
<stop stop-color="#5346F8"/>
<stop offset="1"/>
</linearGradient>
</defs>
</svg>
