<svg width="123" height="116" viewBox="0 0 123 116" fill="none" xmlns="http://www.w3.org/2000/svg">
<path d="M101.053 112.731C94.0942 110.54 82.6779 105.531 77.2612 95.2673C76.0724 93.0153 77.3598 90.2469 79.827 89.6336C92.0519 86.5694 124.891 75.0778 121.87 40.5511C118.164 -1.78955 70.6574 -4.61179 40.348 3.80829C10.0385 12.2284 -5.32953 33.0132 1.67406 64.8629C8.27601 94.8944 65.9812 117.399 100.78 114.937C102.03 114.849 102.247 113.108 101.053 112.731Z" fill="url(#paint0_linear_1530_3372)"/>
<path d="M59.2214 91.3567C60.3726 91.3567 61.0432 91.3208 61.1005 91.3172C61.4201 91.2992 61.7194 91.1549 61.9326 90.9161C62.1458 90.6774 62.2554 90.3638 62.2373 90.0442C62.2193 89.7246 62.075 89.4253 61.8362 89.2121C61.5975 88.9989 61.2838 88.8893 60.9643 88.9074C58.5519 88.9895 56.1368 88.9212 53.733 88.703C53.4176 88.6825 53.1068 88.7865 52.8673 88.9928C52.6278 89.199 52.4788 89.4909 52.4523 89.8058C52.4257 90.1207 52.5238 90.4335 52.7254 90.6769C52.927 90.9203 53.216 91.0749 53.5303 91.1074C55.933 91.3101 57.8964 91.3567 59.2214 91.3567Z" fill="white"/>
<path d="M39.5912 88.4645C39.8813 88.4665 40.1624 88.3639 40.383 88.1756C40.6036 87.9873 40.749 87.7258 40.7926 87.439C40.8361 87.1522 40.7749 86.8593 40.6201 86.614C40.4654 86.3686 40.2274 86.1873 39.9499 86.1031C26.7621 82.0544 18.2362 74.3444 14.5946 63.1917C5.60609 35.6543 23.3123 22.7247 23.4916 22.5974C23.7531 22.4124 23.9305 22.1311 23.9846 21.8154C24.0388 21.4996 23.9653 21.1753 23.7803 20.9137C23.5953 20.6522 23.314 20.4748 22.9982 20.4207C22.6825 20.3666 22.3582 20.4401 22.0966 20.6251C21.8958 20.7685 17.1335 24.1932 13.5313 31.2775C10.2285 37.7772 7.33277 48.7201 12.2995 63.9376C16.1455 75.7196 25.4568 84.1809 39.229 88.4089C39.3462 88.4457 39.4684 88.4645 39.5912 88.4645Z" fill="white"/>
<path d="M76.569 59.9572L99.925 46.868V42.8928L76.569 30.7415V37.2538L92.527 44.9889L76.569 53.4807V59.9572Z" fill="white"/>
<path d="M53.5769 27.5246L65.6458 65.8328L71.9017 65.623L59.6714 27.0728L53.5769 27.5246Z" fill="white"/>
<path d="M49.2126 54.7375L34.6335 48.1212L49.2126 38.9767V32.6509L28.1947 46.9019V50.5848L49.2126 61.0382V54.7375Z" fill="white"/>
<defs>
<linearGradient id="paint0_linear_1530_3372" x1="52.1408" y1="-1.96707" x2="88.3457" y2="201.983" gradientUnits="userSpaceOnUse">
<stop stop-color="#5346F8"/>
<stop offset="0.820768"/>
</linearGradient>
</defs>
</svg>

