<svg width="215" height="343" viewBox="0 0 215 343" fill="none" xmlns="http://www.w3.org/2000/svg">
<path d="M105.079 328.099C98.56 328.662 87.2442 329.578 78.3238 329.971C72.9626 330.205 69.875 329.68 68.1035 328.968C68.1035 329.169 68.1035 329.359 68.1215 329.535C68.1462 329.991 68.3389 330.421 68.6625 330.743C68.986 331.065 69.4174 331.255 69.8732 331.278C86.7278 332.219 100.134 331.602 104.907 331.312C105.133 331.302 105.352 331.234 105.544 331.114C105.736 330.994 105.893 330.827 106.002 330.629C106.11 330.431 106.165 330.208 106.162 329.982C106.158 329.756 106.097 329.535 105.983 329.339C105.713 328.904 105.411 328.49 105.079 328.099Z" fill="url(#paint0_linear_211_3603)"/>
<path d="M78.3238 329.97C87.2441 329.578 98.56 328.662 105.079 328.099C98.6693 320.234 78.3238 314.934 78.3238 314.934H72.5861C68.6324 320.631 68.0604 326.051 68.1035 328.968C69.875 329.68 72.9626 330.202 78.3238 329.97Z" fill="url(#paint1_linear_211_3603)"/>
<path d="M71.6108 305.553L72.1487 316.193C72.1757 316.755 72.3974 317.291 72.7759 317.708C73.1543 318.125 73.666 318.398 74.2233 318.479C75.6703 318.695 77.1476 318.572 78.5391 318.12C79.0306 317.96 79.4696 317.67 79.8099 317.281C80.1501 316.892 80.3789 316.418 80.472 315.91L82.3296 305.551L71.6108 305.553Z" fill="url(#paint2_linear_211_3603)"/>
<path d="M4.91885 340.374C2.09123 339.865 0.81282 337.966 0.276703 335.936L0.265935 335.992C0.0530801 337.04 0.178098 338.129 0.623031 339.101C1.06796 340.074 1.8099 340.88 2.74212 341.405C5.07307 342.681 7.61917 342.898 9.59689 342.793C10.6398 342.745 11.6548 342.44 12.5516 341.905C13.4484 341.371 14.1993 340.623 14.7375 339.728L14.7537 339.701C12.6235 341.062 9.63453 341.224 4.91885 340.374Z" fill="url(#paint3_linear_211_3603)"/>
<path d="M18.25 308.831H13.511C6.29223 308.641 1.75945 328.318 0.276611 335.936C0.814521 337.966 2.09114 339.865 4.91876 340.374C9.63443 341.224 12.6288 341.063 14.7536 339.702C18.6534 333.067 20.5863 323.356 21.5169 317.687C22.573 311.239 18.25 308.831 18.25 308.831Z" fill="url(#paint4_linear_211_3603)"/>
<path d="M14.1189 298.955L11.4957 309.421C11.3385 310.046 11.3992 310.707 11.6677 311.294C11.9363 311.88 12.3968 312.358 12.9732 312.648C14.4453 313.405 16.518 314.197 18.4222 313.968C18.8602 313.91 19.2736 313.732 19.6157 313.453C19.9578 313.173 20.2152 312.804 20.3587 312.386L24.2209 301.375L14.1189 298.955Z" fill="url(#paint5_linear_211_3603)"/>
<path d="M106.684 161.119C106.684 161.119 83.1687 308.108 83.5542 308.915C83.5542 308.915 77.0599 311.868 69.981 309.291C69.981 309.291 72.1075 230.715 77.0886 200.587C77.0886 200.587 36.9569 270.818 24.212 305.815C24.212 305.815 17.5652 305.022 12.0642 301.4C12.0642 301.4 55.2763 174.991 66.8037 158.149L106.684 161.119Z" fill="url(#paint6_linear_211_3603)"/>
<path d="M78.0298 199.818C77.9029 199.817 77.7788 199.781 77.6712 199.714C77.5151 199.616 77.4043 199.46 77.363 199.281C77.3216 199.101 77.3532 198.913 77.4506 198.756L86.2365 184.721C86.2865 184.64 86.3524 184.571 86.4301 184.517C86.5078 184.463 86.5957 184.426 86.6883 184.407L93.154 183.105C93.3316 183.076 93.5136 183.117 93.6616 183.219C93.8097 183.321 93.9124 183.477 93.9482 183.653C93.9839 183.83 93.9499 184.013 93.8533 184.165C93.7567 184.317 93.605 184.425 93.4301 184.468L87.2549 185.71L78.6197 199.49C78.5573 199.59 78.4704 199.673 78.3672 199.73C78.264 199.788 78.1479 199.818 78.0298 199.818Z" fill="url(#paint7_linear_211_3603)"/>
<path d="M214.594 17.1812C214.594 17.1812 198.726 20.6812 189.076 25.1368C187.164 26.0207 185.633 27.5601 184.758 29.476C181.871 35.7982 173.236 51.654 156.489 59.2206C158.901 62.4212 162.785 69.0823 164.475 80.2726C174.534 72.7849 183.218 60.2821 187.387 39.777C187.387 39.777 190.562 41.5037 194.523 39.5797C196.616 38.5631 199.031 37.1215 200.845 35.9937C202.658 34.8807 203.974 33.1134 204.521 31.0574C205.211 28.35 204.804 25.9688 204.804 23.4137L212.961 20.8874C212.961 20.8874 215.412 19.9568 214.594 17.1812Z" fill="url(#paint8_linear_211_3603)"/>
<path d="M164.476 80.2728C162.785 69.0807 158.901 62.4214 156.489 59.2208C146.09 63.9204 132.551 65.4247 115.318 59.4521C113.728 58.9036 112.071 58.5765 110.392 58.4803C101.217 57.9424 70.985 56.9616 45.9686 65.2257C43.3735 66.0812 40.9879 67.4741 38.9674 69.3136C36.9469 71.1531 35.3368 73.3978 34.2421 75.9014C27.4752 91.4309 16.518 126.798 46.9332 144.653C48.8904 139.781 51.3506 135.125 54.2739 130.763C49.3753 122.501 47.9248 111.219 56.6174 96.5159C62.9558 113.63 65.9286 138.6 66.549 149.652C66.7538 153.291 66.1169 156.929 64.6879 160.282L64.5337 160.64C64.4613 160.81 64.4272 160.993 64.4338 161.177C64.4403 161.362 64.4874 161.542 64.5716 161.706C64.6558 161.87 64.7751 162.013 64.921 162.126C65.0669 162.239 65.2359 162.318 65.4158 162.358C82.5393 166.204 100.348 165.159 105.668 164.719C106.129 164.682 106.567 164.499 106.918 164.198C107.27 163.897 107.517 163.493 107.626 163.043C115.951 127.96 115.97 104.029 113.932 88.9009C121.721 90.6527 145.538 94.3679 164.476 80.2728Z" fill="url(#paint9_linear_211_3603)"/>
<path d="M71.7093 38.0432C71.7093 38.0432 69.9772 56.359 68.4531 61.7758C68.3407 62.1751 68.3655 62.6006 68.5235 62.9842C68.6815 63.3677 68.9635 63.6873 69.3245 63.8916C71.9137 65.3708 78.1212 67.7825 86.613 63.6208C87.283 63.2895 87.8421 62.7702 88.222 62.1264C88.6018 61.4825 88.786 60.7421 88.7521 59.9953L88.0044 42.2963L71.7093 38.0432Z" fill="url(#paint10_linear_211_3603)"/>
<path d="M88.3774 14.6138C88.3774 14.6138 93.9179 27.3443 94.2944 34.0198C94.6709 40.6952 96.1054 45.0344 88.3774 46.3791C80.6494 47.7239 74.1479 43.8779 70.6264 37.2239C70.6264 37.2239 65.102 26.9696 66.341 22.7703C67.58 18.571 88.3774 14.6138 88.3774 14.6138Z" fill="url(#paint11_linear_211_3603)"/>
<path d="M73.262 32.4382L73.7014 32.2445C73.8341 32.1866 73.9535 32.102 74.0523 31.9961C74.151 31.8902 74.227 31.7652 74.2756 31.6287C74.3242 31.4923 74.3442 31.3474 74.3346 31.2029C74.3249 31.0584 74.2858 30.9174 74.2195 30.7886C73.1294 28.6836 71.0064 23.8621 73.7497 22.7361C77.2856 21.2873 91.2874 18.4328 94.3087 13.4625C97.2116 8.68767 94.6404 2.52501 90.7728 0.769628C90.6495 0.712782 90.5093 0.704674 90.3803 0.746909C90.2512 0.789144 90.1429 0.8786 90.0771 0.997347L89.7544 1.60698C89.7054 1.69926 89.63 1.77483 89.5379 1.82406C89.4457 1.87329 89.341 1.89394 89.2371 1.88336C89.1331 1.87277 89.0347 1.83144 88.9544 1.76464C88.8741 1.69784 88.8155 1.60862 88.7861 1.50836C88.7589 1.41093 88.704 1.32352 88.628 1.25676C88.552 1.18999 88.4582 1.14675 88.3581 1.13231C88.2579 1.11787 88.1558 1.13285 88.064 1.17542C87.9723 1.218 87.8948 1.28631 87.8412 1.37209C86.9124 2.85851 84.4058 5.26835 77.6998 6.50554C68.1716 8.26451 61.8727 12.1213 61.7149 18.6982C61.7135 18.7921 61.6869 18.884 61.6379 18.9641C61.5889 19.0443 61.5193 19.1099 61.4364 19.154C61.3534 19.1982 61.2601 19.2192 61.1663 19.2151C61.0724 19.2109 60.9814 19.1816 60.9027 19.1303C60.1998 18.7018 59.0738 18.501 57.5694 19.7668C54.9516 21.9669 56.022 27.6741 61.7597 32.3701C61.8243 32.4205 61.8761 32.4854 61.9109 32.5595C61.9457 32.6337 61.9626 32.715 61.9602 32.7969C61.9577 32.8788 61.936 32.9589 61.8969 33.0309C61.8577 33.1028 61.8021 33.1645 61.7346 33.211C60.6947 33.887 59.1437 35.4989 63.1691 37.6452C67.3235 39.8667 70.4273 39.6838 71.6214 39.4866C71.6916 39.4752 71.7586 39.4495 71.8185 39.4111C71.8783 39.3727 71.9296 39.3225 71.9693 39.2635C72.0089 39.2046 72.0361 39.1381 72.049 39.0682C72.062 38.9983 72.0604 38.9265 72.0446 38.8573L70.7697 33.0693C70.7528 32.9926 70.7534 32.9131 70.7713 32.8366C70.7892 32.7601 70.824 32.6886 70.8732 32.6274C70.9224 32.5661 70.9848 32.5167 71.0556 32.4827C71.1264 32.4487 71.204 32.4311 71.2825 32.431L73.262 32.4382Z" fill="url(#paint12_linear_211_3603)"/>
<path d="M191.62 37.8855C191.489 37.8861 191.36 37.8493 191.249 37.7793C191.138 37.7094 191.049 37.6092 190.992 37.4906C190.936 37.3719 190.914 37.2396 190.93 37.1092C190.946 36.9788 190.999 36.8556 191.082 36.7541C191.681 36.0154 196.999 29.5049 199.058 28.3466C199.804 27.9252 200.25 27.4895 200.343 27.0914C200.386 26.869 200.354 26.6385 200.25 26.437L193.994 27.6921L190.449 30.7403C190.308 30.8434 190.133 30.8893 189.959 30.8687C189.785 30.848 189.625 30.7625 189.512 30.6291C189.399 30.4957 189.34 30.3244 189.347 30.1495C189.355 29.9746 189.428 29.809 189.553 29.686L193.234 26.5248C193.325 26.4481 193.433 26.3957 193.55 26.3724L200.476 24.9828C200.611 24.9549 200.752 24.968 200.88 25.0204C201.007 25.0728 201.117 25.1621 201.193 25.2769C201.701 26.03 201.869 26.7292 201.706 27.416C201.514 28.2282 200.876 28.9311 199.752 29.5676C198.208 30.4408 193.756 35.6926 192.169 37.6363C192.102 37.7166 192.018 37.7808 191.923 37.8239C191.828 37.8671 191.725 37.8881 191.62 37.8855Z" fill="#F8A570"/>
<path d="M73.2333 153.455L97.7226 153.767L89.1501 145.699C88.1126 144.719 86.7771 144.114 85.3562 143.981C83.9353 143.848 82.5107 144.194 81.3091 144.964C79.6618 146.018 78.1923 147.328 76.9557 148.844C76.9557 148.844 61.679 143.26 54.2738 130.77C51.3505 135.132 48.8903 139.788 46.9331 144.661C53.5727 148.552 62.1775 151.616 73.2333 153.455Z" fill="url(#paint13_linear_211_3603)"/>
<path d="M75.8656 156.613C75.914 156.613 75.9606 156.613 76.009 156.613L138.172 156.547C138.539 156.556 138.905 156.492 139.247 156.358C139.589 156.224 139.901 156.022 140.164 155.766C140.428 155.509 140.637 155.203 140.78 154.864C140.922 154.525 140.996 154.161 140.996 153.794C140.996 153.426 140.922 153.062 140.78 152.723C140.637 152.385 140.428 152.078 140.164 151.822C139.901 151.565 139.589 151.364 139.247 151.229C138.905 151.095 138.539 151.031 138.172 151.04L76.0072 151.109C75.2898 151.11 74.6011 151.391 74.088 151.892C73.5748 152.394 73.2776 153.076 73.2599 153.793C73.2421 154.51 73.5051 155.206 73.9928 155.732C74.4805 156.258 75.1545 156.573 75.871 156.61L75.8656 156.613Z" fill="url(#paint14_linear_211_3603)"/>
<path d="M194.059 100.769H142.288C140.424 100.765 138.597 101.289 137.018 102.28C135.439 103.271 134.172 104.688 133.365 106.369L109.431 156.574H173.765C174.963 156.577 176.135 156.221 177.128 155.552C178.122 154.883 178.893 153.932 179.342 152.821L197.901 106.356C198.977 103.679 196.976 100.769 194.059 100.769Z" fill="url(#paint15_linear_211_3603)"/>
<path d="M165.328 129.009C166.464 125.565 165.651 122.202 163.515 121.498C161.378 120.794 158.725 123.015 157.59 126.459C156.455 129.903 157.267 133.266 159.404 133.97C161.541 134.675 164.193 132.453 165.328 129.009Z" fill="url(#paint16_linear_211_3603)"/>
<defs>
<linearGradient id="paint0_linear_211_3603" x1="68.0963" y1="329.938" x2="106.153" y2="329.938" gradientUnits="userSpaceOnUse">
<stop stop-color="#53D8FF"/>
<stop offset="1" stop-color="#3840F7"/>
</linearGradient>
<linearGradient id="paint1_linear_211_3603" x1="68.0945" y1="322.481" x2="105.079" y2="322.481" gradientUnits="userSpaceOnUse">
<stop stop-color="#2B3582"/>
<stop offset="1" stop-color="#150E42"/>
</linearGradient>
<linearGradient id="paint2_linear_211_3603" x1="71.6108" y1="312.067" x2="82.3296" y2="312.067" gradientUnits="userSpaceOnUse">
<stop stop-color="#F9B776"/>
<stop offset="1" stop-color="#F47960"/>
</linearGradient>
<linearGradient id="paint3_linear_211_3603" x1="0.169108" y1="339.377" x2="14.7537" y2="339.377" gradientUnits="userSpaceOnUse">
<stop stop-color="#53D8FF"/>
<stop offset="1" stop-color="#3840F7"/>
</linearGradient>
<linearGradient id="paint4_linear_211_3603" x1="0.276611" y1="324.864" x2="21.6818" y2="324.864" gradientUnits="userSpaceOnUse">
<stop stop-color="#2B3582"/>
<stop offset="1" stop-color="#150E42"/>
</linearGradient>
<linearGradient id="paint5_linear_211_3603" x1="11.4025" y1="306.476" x2="24.2137" y2="306.476" gradientUnits="userSpaceOnUse">
<stop stop-color="#F9B776"/>
<stop offset="1" stop-color="#F47960"/>
</linearGradient>
<linearGradient id="paint6_linear_211_3603" x1="115.029" y1="168.226" x2="5.64873" y2="347.401" gradientUnits="userSpaceOnUse">
<stop stop-color="#CB236D"/>
<stop offset="1" stop-color="#4C246D"/>
</linearGradient>
<linearGradient id="paint7_linear_211_3603" x1="73.038" y1="-4.16111" x2="87.5185" y2="220.307" gradientUnits="userSpaceOnUse">
<stop stop-color="#CB236D"/>
<stop offset="1" stop-color="#4C246D"/>
</linearGradient>
<linearGradient id="paint8_linear_211_3603" x1="144.851" y1="75.0208" x2="213.64" y2="26.7488" gradientUnits="userSpaceOnUse">
<stop stop-color="#F9B776"/>
<stop offset="1" stop-color="#F47960"/>
</linearGradient>
<linearGradient id="paint9_linear_211_3603" x1="231.815" y1="274.693" x2="48.9647" y2="35.7213" gradientUnits="userSpaceOnUse">
<stop stop-color="#A737D5"/>
<stop offset="1" stop-color="#EF497A"/>
</linearGradient>
<linearGradient id="paint10_linear_211_3603" x1="74.519" y1="79.283" x2="80.0702" y2="50.1408" gradientUnits="userSpaceOnUse">
<stop stop-color="#F9B776"/>
<stop offset="1" stop-color="#F47960"/>
</linearGradient>
<linearGradient id="paint11_linear_211_3603" x1="89.5393" y1="25.8148" x2="57.8671" y2="50.0495" gradientUnits="userSpaceOnUse">
<stop stop-color="#F9B776"/>
<stop offset="1" stop-color="#F47960"/>
</linearGradient>
<linearGradient id="paint12_linear_211_3603" x1="67.2428" y1="6.62748" x2="96.74" y2="44.6057" gradientUnits="userSpaceOnUse">
<stop stop-color="#2B3582"/>
<stop offset="1" stop-color="#150E42"/>
</linearGradient>
<linearGradient id="paint13_linear_211_3603" x1="33.1339" y1="23.3763" x2="78.9926" y2="170.608" gradientUnits="userSpaceOnUse">
<stop stop-color="#F9B776"/>
<stop offset="1" stop-color="#F47960"/>
</linearGradient>
<linearGradient id="paint14_linear_211_3603" x1="64.9641" y1="140.525" x2="114.357" y2="156.755" gradientUnits="userSpaceOnUse">
<stop stop-color="#2B3582"/>
<stop offset="1" stop-color="#150E42"/>
</linearGradient>
<linearGradient id="paint15_linear_211_3603" x1="133.243" y1="108.171" x2="168.569" y2="145.507" gradientUnits="userSpaceOnUse">
<stop stop-color="#2B3582"/>
<stop offset="1" stop-color="#150E42"/>
</linearGradient>
<linearGradient id="paint16_linear_211_3603" x1="153.648" y1="117.144" x2="169.535" y2="141.22" gradientUnits="userSpaceOnUse">
<stop stop-color="#53D8FF"/>
<stop offset="1" stop-color="#3840F7"/>
</linearGradient>
</defs>
</svg>
