<svg width="100" height="100" viewBox="0 0 100 100" fill="none" xmlns="http://www.w3.org/2000/svg">
<path d="M55.116 94.1149C79.6412 91.3336 97.2799 69.3019 94.5132 44.9056C91.7466 20.5094 69.6222 2.98696 45.097 5.76824C20.5719 8.54952 2.93313 30.5813 5.6998 54.9775C8.46646 79.3738 30.5909 96.8962 55.116 94.1149Z" fill="url(#paint0_linear_1530_3514)"/>
<path d="M8.93144 52.9956H8.96909C9.12895 52.9855 9.2783 52.9125 9.38447 52.7925C9.49064 52.6726 9.545 52.5155 9.53567 52.3555C9.43195 50.653 9.43676 48.9456 9.55003 47.2436C9.56073 47.0841 9.50762 46.9268 9.40237 46.8064C9.29712 46.686 9.14833 46.6124 8.98878 46.6017C8.82924 46.591 8.67198 46.6441 8.5516 46.7494C8.43122 46.8546 8.35761 47.0034 8.34691 47.1629C8.23282 48.9157 8.22982 50.674 8.33793 52.4273C8.34696 52.5794 8.41313 52.7225 8.52319 52.8279C8.63325 52.9333 8.77907 52.9932 8.93144 52.9956Z" fill="white"/>
<path d="M11.4165 36.3205C11.5394 36.3203 11.6594 36.2826 11.7603 36.2124C11.8612 36.1423 11.9383 36.043 11.9813 35.9279C17.3604 21.5119 30.2201 11.4762 45.5595 9.73701C48.0034 9.45885 50.4671 9.39885 52.9217 9.5577C53.0807 9.56616 53.2367 9.51225 53.3566 9.40745C53.4765 9.30264 53.5507 9.15521 53.5636 8.99649C53.5692 8.91743 53.5591 8.83804 53.5339 8.7629C53.5086 8.68776 53.4688 8.61836 53.4166 8.55869C53.3645 8.49902 53.301 8.45027 53.2299 8.41524C53.1588 8.38021 53.0815 8.35959 53.0024 8.35459C50.4757 8.18765 47.9392 8.24765 45.4232 8.53389C29.6302 10.3269 16.3761 20.6566 10.8517 35.4993C10.8176 35.5906 10.8061 35.6888 10.8181 35.7856C10.8302 35.8823 10.8654 35.9747 10.9209 36.0548C10.9764 36.135 11.0504 36.2005 11.1367 36.2459C11.2231 36.2912 11.319 36.315 11.4165 36.3152V36.3205Z" fill="white"/>
<path d="M26.2556 36.2164V65.6849L51.5213 77.1137L51.6521 76.9111L72.2416 62.0863L72.0623 37.7925L51.2882 24.0256L51.3204 23.8391L26.2556 36.2164Z" fill="white"/>
<defs>
<linearGradient id="paint0_linear_1530_3514" x1="43.4114" y1="-1.86065" x2="72.6967" y2="190.409" gradientUnits="userSpaceOnUse">
<stop stop-color="#5346F8"/>
<stop offset="1"/>
</linearGradient>
</defs>
</svg>
